<svg id="Calque_1" data-name="Calque 1" xmlns="http://www.w3.org/2000/svg" xmlns:xlink="http://www.w3.org/1999/xlink" viewBox="0 0 1948.276 825.862">
  <defs>
    <clipPath id="clip-path">
      <rect x="-64.763" y="55.733" width="2071.56" height="767.272" style="fill: none"/>
    </clipPath>
  </defs>
  <g>
    <path d="M18.218,17.955H41.884V21.8h-19.1v10.9h17.81v3.84H22.779V48.389H42.028V52.23H18.218Z" style="fill: #181716"/>
    <path d="M46.394,27.411h3.841v3.937h.1A8.638,8.638,0,0,1,58.4,26.836c6.529,0,8.545,3.744,8.545,9.072V52.23H62.86v-16.8a4.676,4.676,0,0,0-5.041-4.992c-4.944,0-7.344,3.312-7.344,7.777V52.23H46.394Z" style="fill: #181716"/>
    <path d="M86.234,17.955h6.241l10.8,28.8,10.849-28.8h6.24V52.23h-4.32V23.715h-.1l-10.7,28.515h-3.889l-10.7-28.515h-.1V52.23h-4.32Z" style="fill: #181716"/>
    <path d="M132.458,27.411H137.4v3.6h-4.944V46.421c0,1.872.528,2.209,3.072,2.209H137.4v3.6h-3.12c-4.224,0-5.9-.865-5.9-5.425V31.012h-4.225v-3.6h4.225v-7.44h4.08Z" style="fill: #181716"/>
    <path d="M179.067,28.276c-.96-4.849-4.848-7.3-9.6-7.3-8.16,0-11.617,6.72-11.617,13.873,0,7.825,3.457,14.353,11.665,14.353,6,0,9.457-4.224,9.889-9.888h4.561c-.865,8.545-6.193,13.729-14.833,13.729-10.658,0-15.842-7.873-15.842-17.858,0-9.937,5.664-18.049,16.225-18.049,7.153,0,13.057,3.84,14.114,11.137Z" style="fill: #181716"/>
    <path d="M203.642,17.139c10.9,0,16.417,8.641,16.417,17.953s-5.52,17.954-16.417,17.954-16.418-8.641-16.418-17.954S192.745,17.139,203.642,17.139Zm0,32.066c8.352,0,11.857-7.2,11.857-14.113s-3.5-14.113-11.857-14.113-11.857,7.2-11.857,14.113S195.289,49.205,203.642,49.205Z" style="fill: #181716"/>
    <path d="M222.631,47.4c-.2-4.03,2.183-7.025,6.38-7.025,3.471,0,6.213,2.015,6.213,5.709,0,3.5-2.351,5.262-4.813,6.8-2.491,1.511-5.093,2.77-5.57,5.233h10.187v2.1H222.071c.392-4.7,2.77-6.381,5.569-8.116,3.358-2.071,5.065-3.3,5.065-6.045a3.616,3.616,0,0,0-3.834-3.582c-2.77,0-3.946,2.547-3.862,4.926Z" style="fill: #181716"/>
    <path d="M273.785,44.357c-1.1,5.472-5.04,8.449-10.609,8.449-7.92,0-11.665-5.473-11.9-13.057,0-7.441,4.9-12.913,11.665-12.913,8.785,0,11.473,8.208,11.233,14.209H255.591c-.144,4.32,2.305,8.16,7.729,8.16,3.361,0,5.713-1.632,6.433-4.848Zm-3.936-6.912a7.141,7.141,0,0,0-7.153-7.009c-4.272,0-6.816,3.216-7.105,7.009Zm-6.193-20.306h5.233L262.6,24h-3.072Z" style="fill: #181716"/>
    <path d="M300.089,61.735h-4.081V48.869h-.1c-1.344,2.737-4.512,3.937-7.92,3.937-7.633,0-11.425-6.049-11.425-13.057s3.744-12.913,11.329-12.913c2.544,0,6.192.96,8.016,3.888h.1V27.411h4.081Zm-11.521-12.53c5.472,0,7.584-4.7,7.584-9.361,0-4.9-2.208-9.408-7.824-9.408-5.569,0-7.441,4.752-7.441,9.6C280.887,44.693,283.287,49.205,288.568,49.205Z" style="fill: #181716"/>
  </g>
  <line x1="1527.051" y1="217.145" x2="137.803" y2="217.145" style="fill: none;stroke: #cfd0d0;stroke-linejoin: round;stroke-width: 2.4000000953674316px;stroke-dasharray: 17.18400001525879,6.4720001220703125"/>
  <line x1="1527.051" y1="305.163" x2="137.803" y2="305.163" style="fill: none;stroke: #cfd0d0;stroke-linejoin: round;stroke-width: 2.4000000953674316px;stroke-dasharray: 17.18400001525879,6.4720001220703125"/>
  <line x1="1527.1" y1="125.762" x2="137.508" y2="125.762" style="fill: none;stroke: #cfd0d0;stroke-linejoin: round;stroke-width: 2.4000000953674316px;stroke-dasharray: 17.191999435424805,6.4720001220703125"/>
  <line x1="1527.051" y1="572.929" x2="137.803" y2="572.929" style="fill: none;stroke: #cfd0d0;stroke-linejoin: round;stroke-width: 2.4000000953674316px;stroke-dasharray: 17.18400001525879,6.4720001220703125"/>
  <line x1="1527.051" y1="660.946" x2="137.803" y2="660.946" style="fill: none;stroke: #cfd0d0;stroke-linejoin: round;stroke-width: 2.4000000953674316px;stroke-dasharray: 17.18400001525879,6.4720001220703125"/>
  <line x1="1527.1" y1="481.545" x2="137.508" y2="481.545" style="fill: none;stroke: #cfd0d0;stroke-linejoin: round;stroke-width: 2.4000000953674316px;stroke-dasharray: 17.191999435424805,6.4720001220703125"/>
  <line x1="1527.05" y1="393.488" x2="138.146" y2="393.488" style="fill: none;stroke: #cfd0d0;stroke-linejoin: round;stroke-width: 2.4000000953674316px;stroke-dasharray: 17.18400001525879,6.464000225067139"/>
  <path d="M29.037,140.286h-3.4V119.969H18.278V117.25c3.88,0,7.4-1.04,8.159-5.32h2.6Z" style="fill: #181716"/>
  <g>
    <path d="M58.8,130.648h3.839v3H58.8v6.639H55.6v-6.639H43.157v-3.28L56.075,111.93H58.8Zm-3.2,0V116.77h-.08l-9.438,13.878Z" style="fill: #181716"/>
    <path d="M75.4,111.93c8.878,0,9.438,8.159,9.438,14.438,0,6.239-.56,14.4-9.438,14.4s-9.439-8.159-9.439-14.4C65.957,120.089,66.517,111.93,75.4,111.93Zm0,25.836c5.8,0,5.839-7.2,5.839-11.438,0-4.2-.041-11.4-5.839-11.4s-5.839,7.2-5.839,11.4C69.557,130.568,69.6,137.766,75.4,137.766Z" style="fill: #181716"/>
    <path d="M97.635,111.93c8.879,0,9.439,8.159,9.439,14.438,0,6.239-.56,14.4-9.439,14.4s-9.438-8.159-9.438-14.4C88.2,120.089,88.757,111.93,97.635,111.93Zm0,25.836c5.8,0,5.839-7.2,5.839-11.438,0-4.2-.04-11.4-5.839-11.4s-5.838,7.2-5.838,11.4C91.8,130.568,91.837,137.766,97.635,137.766Z" style="fill: #181716"/>
  </g>
  <path d="M29.037,228.731h-3.4V208.415H18.278V205.7c3.88,0,7.4-1.04,8.159-5.319h2.6Z" style="fill: #181716"/>
  <g>
    <path d="M43.8,210.414c-.28-5.759,3.12-10.038,9.118-10.038,4.96,0,8.879,2.88,8.879,8.158,0,5-3.359,7.519-6.879,9.719-3.559,2.16-7.279,3.959-7.959,7.479H61.514v3H43c.56-6.719,3.959-9.118,7.959-11.6,4.8-2.959,7.238-4.719,7.238-8.639a5.166,5.166,0,0,0-5.479-5.119c-3.959,0-5.639,3.64-5.519,7.039Z" style="fill: #181716"/>
    <path d="M75.4,200.376c8.878,0,9.438,8.158,9.438,14.438,0,6.238-.56,14.4-9.438,14.4s-9.439-8.159-9.439-14.4C65.957,208.534,66.517,200.376,75.4,200.376Zm0,25.836c5.8,0,5.839-7.2,5.839-11.438,0-4.2-.041-11.4-5.839-11.4s-5.839,7.2-5.839,11.4C69.557,219.013,69.6,226.212,75.4,226.212Z" style="fill: #181716"/>
    <path d="M97.635,200.376c8.879,0,9.439,8.158,9.439,14.438,0,6.238-.56,14.4-9.439,14.4s-9.438-8.159-9.438-14.4C88.2,208.534,88.757,200.376,97.635,200.376Zm0,25.836c5.8,0,5.839-7.2,5.839-11.438,0-4.2-.04-11.4-5.839-11.4s-5.838,7.2-5.838,11.4C91.8,219.013,91.837,226.212,97.635,226.212Z" style="fill: #181716"/>
  </g>
  <path d="M29.037,317.169h-3.4V296.852H18.278v-2.719c3.88,0,7.4-1.04,8.159-5.32h2.6Z" style="fill: #181716"/>
  <g>
    <path d="M53.155,288.813c8.879,0,9.439,8.159,9.439,14.438,0,6.239-.56,14.4-9.439,14.4s-9.438-8.159-9.438-14.4C43.717,296.972,44.277,288.813,53.155,288.813Zm0,25.836c5.8,0,5.839-7.2,5.839-11.438,0-4.2-.04-11.4-5.839-11.4s-5.838,7.2-5.838,11.4C47.317,307.45,47.357,314.649,53.155,314.649Z" style="fill: #181716"/>
    <path d="M75.4,288.813c8.878,0,9.438,8.159,9.438,14.438,0,6.239-.56,14.4-9.438,14.4s-9.439-8.159-9.439-14.4C65.957,296.972,66.517,288.813,75.4,288.813Zm0,25.836c5.8,0,5.839-7.2,5.839-11.438,0-4.2-.041-11.4-5.839-11.4s-5.839,7.2-5.839,11.4C69.557,307.45,69.6,314.649,75.4,314.649Z" style="fill: #181716"/>
    <path d="M97.635,288.813c8.879,0,9.439,8.159,9.439,14.438,0,6.239-.56,14.4-9.439,14.4s-9.438-8.159-9.438-14.4C88.2,296.972,88.757,288.813,97.635,288.813Zm0,25.836c5.8,0,5.839-7.2,5.839-11.438,0-4.2-.04-11.4-5.839-11.4s-5.838,7.2-5.838,11.4C91.8,307.45,91.837,314.649,97.635,314.649Z" style="fill: #181716"/>
  </g>
  <g>
    <path d="M52.955,377.251c6.2,0,8.6,3.639,8.6,7.239a6.566,6.566,0,0,1-3.92,5.879c3.4,1.079,5.04,3.559,5.04,7.078,0,5.479-4.16,8.639-9.4,8.639-5.44,0-9.639-2.839-9.639-8.639a7.156,7.156,0,0,1,4.959-7.078,6.408,6.408,0,0,1-3.959-5.879C44.637,379.81,48.6,377.251,52.955,377.251Zm.321,25.836a5.478,5.478,0,0,0,5.8-5.519,5.584,5.584,0,0,0-5.838-5.4c-3.36,0-6,2.159-6,5.439C47.236,401.007,49.756,403.087,53.276,403.087Zm0-13.918a4.355,4.355,0,0,0,4.679-4.559c0-2.84-2-4.36-4.76-4.36-2.719,0-4.959,1.52-4.959,4.36C48.236,387.729,50.476,389.169,53.276,389.169Z" style="fill: #181716"/>
    <path d="M75.4,377.251c8.878,0,9.438,8.158,9.438,14.438,0,6.238-.56,14.4-9.438,14.4s-9.439-8.159-9.439-14.4C65.957,385.409,66.517,377.251,75.4,377.251Zm0,25.836c5.8,0,5.839-7.2,5.839-11.438,0-4.2-.041-11.4-5.839-11.4s-5.839,7.2-5.839,11.4C69.557,395.888,69.6,403.087,75.4,403.087Z" style="fill: #181716"/>
    <path d="M97.635,377.251c8.879,0,9.439,8.158,9.439,14.438,0,6.238-.56,14.4-9.439,14.4s-9.438-8.159-9.438-14.4C88.2,385.409,88.757,377.251,97.635,377.251Zm0,25.836c5.8,0,5.839-7.2,5.839-11.438,0-4.2-.04-11.4-5.839-11.4s-5.838,7.2-5.838,11.4C91.8,395.888,91.837,403.087,97.635,403.087Z" style="fill: #181716"/>
  </g>
  <g>
    <path d="M58.594,472.935a4.542,4.542,0,0,0-4.759-4.239c-5.8,0-6.719,6.4-6.879,10.758l.08.08a7.69,7.69,0,0,1,7.079-3.719c5.439,0,8.679,3.959,8.679,9.2,0,4.12-2.32,9.518-9.478,9.518-8.4,0-9.759-7.678-9.759-13.637,0-7.8,2.36-15.2,10.438-15.2,4.679,0,7.6,2.64,8,7.239Zm-11,12.278c0,3.519,2.16,6.319,5.879,6.319,3.68,0,5.719-2.919,5.719-6.279,0-3.519-1.839-6.439-5.719-6.439C49.676,478.814,47.6,481.654,47.6,485.213Z" style="fill: #181716"/>
    <path d="M75.4,465.7c8.878,0,9.438,8.159,9.438,14.438,0,6.239-.56,14.4-9.438,14.4s-9.439-8.158-9.439-14.4C65.957,473.855,66.517,465.7,75.4,465.7Zm0,25.836c5.8,0,5.839-7.2,5.839-11.438,0-4.2-.041-11.4-5.839-11.4s-5.839,7.2-5.839,11.4C69.557,484.333,69.6,491.532,75.4,491.532Z" style="fill: #181716"/>
    <path d="M97.635,465.7c8.879,0,9.439,8.159,9.439,14.438,0,6.239-.56,14.4-9.439,14.4s-9.438-8.158-9.438-14.4C88.2,473.855,88.757,465.7,97.635,465.7Zm0,25.836c5.8,0,5.839-7.2,5.839-11.438,0-4.2-.04-11.4-5.839-11.4s-5.838,7.2-5.838,11.4C91.8,484.333,91.837,491.532,97.635,491.532Z" style="fill: #181716"/>
  </g>
  <g>
    <path d="M58.8,572.851h3.839v3H58.8v6.639H55.6V575.85H43.157v-3.279l12.918-18.437H58.8Zm-3.2,0V558.973h-.08l-9.438,13.878Z" style="fill: #181716"/>
    <path d="M75.4,554.134c8.878,0,9.438,8.158,9.438,14.438,0,6.238-.56,14.4-9.438,14.4s-9.439-8.159-9.439-14.4C65.957,562.292,66.517,554.134,75.4,554.134Zm0,25.835c5.8,0,5.839-7.2,5.839-11.438,0-4.2-.041-11.4-5.839-11.4s-5.839,7.2-5.839,11.4C69.557,572.771,69.6,579.969,75.4,579.969Z" style="fill: #181716"/>
    <path d="M97.635,554.134c8.879,0,9.439,8.158,9.439,14.438,0,6.238-.56,14.4-9.439,14.4s-9.438-8.159-9.438-14.4C88.2,562.292,88.757,554.134,97.635,554.134Zm0,25.835c5.8,0,5.839-7.2,5.839-11.438,0-4.2-.04-11.4-5.839-11.4s-5.838,7.2-5.838,11.4C91.8,572.771,91.837,579.969,97.635,579.969Z" style="fill: #181716"/>
  </g>
  <g>
    <path d="M43.8,652.61c-.28-5.76,3.12-10.039,9.118-10.039,4.96,0,8.879,2.88,8.879,8.159,0,5-3.359,7.519-6.879,9.718-3.559,2.16-7.279,3.959-7.959,7.479H61.514v3H43c.56-6.718,3.959-9.118,7.959-11.6,4.8-2.959,7.238-4.719,7.238-8.638a5.166,5.166,0,0,0-5.479-5.119c-3.959,0-5.639,3.639-5.519,7.039Z" style="fill: #181716"/>
    <path d="M75.4,642.571c8.878,0,9.438,8.159,9.438,14.438,0,6.239-.56,14.4-9.438,14.4s-9.439-8.158-9.439-14.4C65.957,650.73,66.517,642.571,75.4,642.571Zm0,25.836c5.8,0,5.839-7.2,5.839-11.438,0-4.2-.041-11.4-5.839-11.4s-5.839,7.2-5.839,11.4C69.557,661.208,69.6,668.407,75.4,668.407Z" style="fill: #181716"/>
    <path d="M97.635,642.571c8.879,0,9.439,8.159,9.439,14.438,0,6.239-.56,14.4-9.439,14.4s-9.438-8.158-9.438-14.4C88.2,650.73,88.757,642.571,97.635,642.571Zm0,25.836c5.8,0,5.839-7.2,5.839-11.438,0-4.2-.04-11.4-5.839-11.4s-5.838,7.2-5.838,11.4C91.8,661.208,91.837,668.407,97.635,668.407Z" style="fill: #181716"/>
  </g>
  <path d="M97.636,731.016c8.878,0,9.438,8.16,9.438,14.438,0,6.239-.56,14.4-9.438,14.4s-9.439-8.158-9.439-14.4C88.2,739.176,88.757,731.016,97.636,731.016Zm0,25.836c5.8,0,5.839-7.2,5.839-11.438,0-4.2-.04-11.4-5.839-11.4s-5.839,7.2-5.839,11.4C91.8,749.653,91.837,756.852,97.636,756.852Z" style="fill: #181716"/>
  <line x1="136.424" y1="214.141" x2="122.816" y2="214.141" style="fill: none;stroke: #181716;stroke-miterlimit: 10;stroke-width: 2.4000000953674316px"/>
  <line x1="136.424" y1="393.233" x2="122.816" y2="393.233" style="fill: none;stroke: #181716;stroke-miterlimit: 10;stroke-width: 2.4000000953674316px"/>
  <line x1="136.424" y1="571.171" x2="122.816" y2="571.171" style="fill: none;stroke: #181716;stroke-miterlimit: 10;stroke-width: 2.4000000953674316px"/>
  <line x1="136.424" y1="749.383" x2="122.816" y2="749.383" style="fill: none;stroke: #181716;stroke-miterlimit: 10;stroke-width: 2.4000000953674316px"/>
  <line x1="136.424" y1="125.762" x2="122.816" y2="125.762" style="fill: none;stroke: #181716;stroke-miterlimit: 10;stroke-width: 2.4000000953674316px"/>
  <line x1="136.424" y1="303.64" x2="122.816" y2="303.64" style="fill: none;stroke: #181716;stroke-miterlimit: 10;stroke-width: 2.4000000953674316px"/>
  <line x1="136.424" y1="482.182" x2="122.816" y2="482.182" style="fill: none;stroke: #181716;stroke-miterlimit: 10;stroke-width: 2.4000000953674316px"/>
  <line x1="136.424" y1="660.517" x2="122.816" y2="660.517" style="fill: none;stroke: #181716;stroke-miterlimit: 10;stroke-width: 2.4000000953674316px"/>
  <rect x="1587.853" y="175.229" width="34.016" height="34.016" style="fill: #4970b6"/>
  <g>
    <path d="M1636.105,180.684h18.757v3.2h-14.957v9.079h13.118v3.2h-13.118v13.078h-3.8Z" style="fill: #181716"/>
    <path d="M1676.823,209.159a4.59,4.59,0,0,1-2.441.56c-1.759,0-2.878-.96-2.878-3.2a9.176,9.176,0,0,1-7.28,3.2c-3.759,0-6.839-1.68-6.839-5.8,0-4.68,3.48-5.679,7-6.359,3.76-.72,6.959-.48,6.959-3.04,0-2.959-2.439-3.439-4.6-3.439-2.879,0-5,.88-5.159,3.919h-3.4c.2-5.119,4.16-6.918,8.759-6.918,3.72,0,7.759.84,7.759,5.678V204.4c0,1.6,0,2.319,1.08,2.319a2.926,2.926,0,0,0,1.04-.2Zm-5.52-10.6c-1.319.96-3.879,1-6.159,1.4-2.239.4-4.159,1.2-4.159,3.719,0,2.24,1.92,3.039,4,3.039,4.48,0,6.319-2.8,6.319-4.679Z" style="fill: #181716"/>
    <path d="M1680.105,180.684h3.4v10.678h.08c1.119-2.28,3.758-3.279,6.6-3.279,6.36,0,9.519,5.039,9.519,10.878s-3.119,10.758-9.439,10.758c-2.12,0-5.159-.8-6.678-3.24h-.08v2.76h-3.4Zm9.6,10.4c-4.56,0-6.32,3.919-6.32,7.8,0,4.079,1.84,7.838,6.519,7.838,4.64,0,6.2-3.959,6.2-8C1696.1,194.842,1694.1,191.082,1689.7,191.082Z" style="fill: #181716"/>
    <path d="M1703.584,188.562h3.2v4.36h.08c1.64-3.32,3.92-4.959,7.6-4.839v3.6c-5.479,0-7.479,3.119-7.479,8.359v9.2h-3.4Z" style="fill: #181716"/>
    <path d="M1720.624,184.843h-3.4v-4.159h3.4Zm-3.4,3.719h3.4v20.677h-3.4Z" style="fill: #181716"/>
    <path d="M1739.941,195.2a4.813,4.813,0,0,0-5.119-4.119c-4.92,0-6.44,3.879-6.44,8.079,0,3.8,1.72,7.558,6.04,7.558,3.279,0,5.239-1.919,5.678-5.039h3.48c-.76,5.039-3.919,8.039-9.118,8.039-6.32,0-9.679-4.4-9.679-10.558,0-6.2,3.2-11.078,9.759-11.078,4.678,0,8.438,2.2,8.918,7.118Z" style="fill: #181716"/>
    <path d="M1765.7,209.159a4.59,4.59,0,0,1-2.441.56c-1.759,0-2.878-.96-2.878-3.2a9.176,9.176,0,0,1-7.28,3.2c-3.759,0-6.839-1.68-6.839-5.8,0-4.68,3.48-5.679,7-6.359,3.76-.72,6.959-.48,6.959-3.04,0-2.959-2.439-3.439-4.6-3.439-2.879,0-5,.88-5.159,3.919h-3.4c.2-5.119,4.16-6.918,8.759-6.918,3.72,0,7.759.84,7.759,5.678V204.4c0,1.6,0,2.319,1.08,2.319a2.926,2.926,0,0,0,1.04-.2Zm-5.52-10.6c-1.319.96-3.879,1-6.159,1.4-2.239.4-4.159,1.2-4.159,3.719,0,2.24,1.92,3.039,4,3.039,4.479,0,6.319-2.8,6.319-4.679Z" style="fill: #181716"/>
    <path d="M1773.581,188.562h4.12v3h-4.12V204.4c0,1.56.44,1.839,2.559,1.839h1.561v3h-2.6c-3.519,0-4.92-.72-4.92-4.519V191.562h-3.518v-3h3.518v-6.2h3.4Z" style="fill: #181716"/>
    <path d="M1785.061,184.843h-3.4v-4.159h3.4Zm-3.4,3.719h3.4v20.677h-3.4Z" style="fill: #181716"/>
    <path d="M1799.26,188.083c6.559,0,10.038,4.759,10.038,10.838,0,6.039-3.479,10.8-10.038,10.8s-10.039-4.759-10.039-10.8C1789.221,192.842,1792.7,188.083,1799.26,188.083Zm0,18.636c3.559,0,6.439-2.8,6.439-7.8,0-5.039-2.88-7.839-6.439-7.839s-6.439,2.8-6.439,7.839C1792.821,203.92,1795.7,206.719,1799.26,206.719Z" style="fill: #181716"/>
    <path d="M1813.3,188.562h3.2v3.28h.08a7.2,7.2,0,0,1,6.718-3.759c5.44,0,7.12,3.119,7.12,7.558v13.6h-3.4v-14a3.9,3.9,0,0,0-4.2-4.159c-4.119,0-6.119,2.76-6.119,6.479v11.678h-3.4Z" style="fill: #181716"/>
    <path d="M1865.137,209.239h-3.4v-2.8h-.08c-1.119,2.279-3.759,3.279-6.6,3.279-6.358,0-9.518-5.039-9.518-10.878s3.12-10.758,9.438-10.758c2.12,0,5.159.8,6.679,3.239h.08V180.684h3.4Zm-9.6-2.52c4.558,0,6.318-3.919,6.318-7.8,0-4.079-1.84-7.839-6.518-7.839-4.64,0-6.2,3.959-6.2,8C1849.14,202.96,1851.14,206.719,1855.54,206.719Z" style="fill: #181716"/>
    <path d="M1888.017,202.68c-.92,4.559-4.2,7.039-8.838,7.039-6.6,0-9.718-4.559-9.919-10.878,0-6.2,4.08-10.758,9.719-10.758,7.319,0,9.559,6.839,9.359,11.838H1872.86c-.12,3.6,1.92,6.8,6.439,6.8,2.8,0,4.759-1.359,5.359-4.039Zm-3.279-5.759a5.949,5.949,0,0,0-5.959-5.839c-3.56,0-5.679,2.679-5.919,5.839Z" style="fill: #181716"/>
  </g>
  <g>
    <path d="M1635.546,236.562h3.2v3.04h.08a7.621,7.621,0,0,1,6.679-3.519c2.519,0,4.839,1,5.679,3.519a7.649,7.649,0,0,1,6.479-3.519c4.119,0,6.879,1.719,6.879,6v15.157h-3.4V243.681c0-2.559-.679-4.6-4-4.6a5.008,5.008,0,0,0-5.4,5.279v12.878h-3.4V243.681c0-2.679-.839-4.6-3.878-4.6a5.576,5.576,0,0,0-5.52,5.279v12.878h-3.4Z" style="fill: #181716"/>
    <path d="M1673.265,232.843h-3.4v-4.159h3.4Zm-3.4,3.719h3.4v20.677h-3.4Z" style="fill: #181716"/>
    <path d="M1678.545,236.562h3.2v3.28h.08a7.2,7.2,0,0,1,6.719-3.759c5.439,0,7.119,3.119,7.119,7.558v13.6h-3.4v-14a3.9,3.9,0,0,0-4.2-4.159c-4.119,0-6.119,2.76-6.119,6.479v11.678h-3.4Z" style="fill: #181716"/>
    <path d="M1718.422,250.68c-.92,4.559-4.2,7.039-8.838,7.039-6.6,0-9.719-4.559-9.919-10.878,0-6.2,4.08-10.758,9.718-10.758,7.319,0,9.559,6.839,9.359,11.838h-15.478c-.12,3.6,1.92,6.8,6.44,6.8,2.8,0,4.759-1.359,5.358-4.039Zm-3.28-5.759a5.949,5.949,0,0,0-5.959-5.839c-3.559,0-5.678,2.679-5.919,5.839ZM1709.983,228h4.359l-5.239,5.719h-2.559Z" style="fill: #181716"/>
    <path d="M1722.144,236.562h3.2v4.36h.08c1.64-3.32,3.92-4.959,7.6-4.839v3.6c-5.478,0-7.478,3.119-7.478,8.359v9.2h-3.4Z" style="fill: #181716"/>
    <path d="M1753.9,257.159a4.588,4.588,0,0,1-2.44.56c-1.76,0-2.879-.96-2.879-3.2a9.176,9.176,0,0,1-7.28,3.2c-3.758,0-6.838-1.68-6.838-5.8,0-4.68,3.479-5.679,7-6.359,3.759-.72,6.959-.48,6.959-3.04,0-2.959-2.44-3.439-4.6-3.439-2.879,0-5,.88-5.159,3.919h-3.4c.2-5.119,4.16-6.918,8.759-6.918,3.72,0,7.759.84,7.759,5.678V252.4c0,1.6,0,2.319,1.08,2.319a2.923,2.923,0,0,0,1.04-.2Zm-5.52-10.6c-1.319.96-3.878,1-6.159,1.4-2.239.4-4.159,1.2-4.159,3.719,0,2.24,1.92,3.039,4,3.039,4.48,0,6.319-2.8,6.319-4.679Z" style="fill: #181716"/>
    <path d="M1774.18,257.239h-3.2V253.96h-.08a7.2,7.2,0,0,1-6.719,3.759c-5.439,0-7.119-3.12-7.119-7.559v-13.6h3.4v14a3.9,3.9,0,0,0,4.2,4.159c4.119,0,6.119-2.759,6.119-6.479V236.562h3.4Z" style="fill: #181716"/>
    <path d="M1784.862,246.361l-7.2-9.8h4.359l4.959,7.239,5.159-7.239h4.079l-7.118,9.519,8,11.158h-4.359l-5.759-8.559-5.759,8.559H1777.1Z" style="fill: #181716"/>
  </g>
  <g>
    <path d="M1635.546,284.562h3.2v3.28h.08a7.2,7.2,0,0,1,6.719-3.759c5.439,0,7.119,3.119,7.119,7.558v13.6h-3.4v-14a3.9,3.9,0,0,0-4.2-4.159c-4.119,0-6.119,2.76-6.119,6.479v11.678h-3.4Z" style="fill: #181716"/>
    <path d="M1666.705,284.083c6.558,0,10.038,4.759,10.038,10.838,0,6.039-3.48,10.8-10.038,10.8s-10.039-4.759-10.039-10.8C1656.666,288.842,1660.145,284.083,1666.705,284.083Zm0,18.636c3.558,0,6.438-2.8,6.438-7.8,0-5.039-2.88-7.839-6.438-7.839s-6.44,2.8-6.44,7.839C1660.265,299.92,1663.145,302.719,1666.705,302.719Z" style="fill: #181716"/>
    <path d="M1680.745,284.562h3.2v3.28h.08a7.2,7.2,0,0,1,6.719-3.759c5.439,0,7.119,3.119,7.119,7.558v13.6h-3.4v-14a3.9,3.9,0,0,0-4.2-4.159c-4.119,0-6.119,2.76-6.119,6.479v11.678h-3.4Z" style="fill: #181716"/>
    <path d="M1714.105,284.562h3.2v3.04h.08a7.622,7.622,0,0,1,6.679-3.519c2.52,0,4.84,1,5.68,3.519a7.648,7.648,0,0,1,6.478-3.519c4.119,0,6.879,1.719,6.879,6v15.157h-3.4V291.681c0-2.559-.68-4.6-4-4.6a5.009,5.009,0,0,0-5.4,5.279v12.878h-3.4V291.681c0-2.679-.84-4.6-3.879-4.6a5.576,5.576,0,0,0-5.519,5.279v12.878h-3.4Z" style="fill: #181716"/>
    <path d="M1765.862,298.68c-.92,4.559-4.2,7.039-8.838,7.039-6.6,0-9.719-4.559-9.919-10.878,0-6.2,4.08-10.758,9.719-10.758,7.318,0,9.558,6.839,9.358,11.838h-15.477c-.12,3.6,1.92,6.8,6.439,6.8,2.8,0,4.759-1.359,5.359-4.039Zm-3.279-5.759a5.949,5.949,0,0,0-5.959-5.839c-3.56,0-5.679,2.679-5.919,5.839ZM1757.423,276h4.36l-5.239,5.719h-2.56Z" style="fill: #181716"/>
    <path d="M1774.423,284.562h4.121v3h-4.121V300.4c0,1.56.441,1.839,2.56,1.839h1.561v3h-2.6c-3.52,0-4.92-.72-4.92-4.519V287.562h-3.518v-3h3.518v-6.2h3.4Z" style="fill: #181716"/>
    <path d="M1800.622,305.159a4.592,4.592,0,0,1-2.441.56c-1.759,0-2.879-.96-2.879-3.2a9.173,9.173,0,0,1-7.279,3.2c-3.759,0-6.839-1.68-6.839-5.8,0-4.68,3.48-5.679,7-6.359,3.76-.72,6.959-.48,6.959-3.04,0-2.959-2.439-3.439-4.6-3.439-2.879,0-5,.88-5.16,3.919h-3.4c.2-5.119,4.16-6.918,8.759-6.918,3.72,0,7.759.84,7.759,5.678V300.4c0,1.6,0,2.319,1.08,2.319a2.926,2.926,0,0,0,1.04-.2Zm-5.52-10.6c-1.319.96-3.879,1-6.159,1.4-2.239.4-4.159,1.2-4.159,3.719,0,2.24,1.92,3.039,4,3.039,4.479,0,6.319-2.8,6.319-4.679Z" style="fill: #181716"/>
    <path d="M1803.984,276.684h3.4v28.555h-3.4Z" style="fill: #181716"/>
    <path d="M1812.863,276.684h3.4v28.555h-3.4Z" style="fill: #181716"/>
    <path d="M1825.142,280.843h-3.4v-4.159h3.4Zm-3.4,3.719h3.4v20.677h-3.4Z" style="fill: #181716"/>
    <path d="M1848.9,313.157h-3.4V302.44h-.08c-1.12,2.279-3.759,3.279-6.6,3.279-6.358,0-9.519-5.039-9.519-10.878s3.121-10.758,9.439-10.758c2.12,0,5.159.8,6.679,3.239h.08v-2.76h3.4Zm-9.6-10.438c4.559,0,6.319-3.919,6.319-7.8,0-4.079-1.84-7.839-6.519-7.839-4.639,0-6.2,3.959-6.2,8C1832.9,298.96,1834.9,302.719,1839.3,302.719Z" style="fill: #181716"/>
    <path d="M1871.258,305.239h-3.2V301.96h-.08a7.2,7.2,0,0,1-6.719,3.759c-5.439,0-7.119-3.12-7.119-7.559v-13.6h3.4v14a3.9,3.9,0,0,0,4.2,4.159c4.119,0,6.119-2.759,6.119-6.479V284.562h3.4Z" style="fill: #181716"/>
    <path d="M1894.018,298.68c-.92,4.559-4.2,7.039-8.838,7.039-6.6,0-9.718-4.559-9.919-10.878,0-6.2,4.08-10.758,9.719-10.758,7.318,0,9.559,6.839,9.359,11.838h-15.478c-.12,3.6,1.92,6.8,6.439,6.8,2.8,0,4.759-1.359,5.359-4.039Zm-3.279-5.759a5.949,5.949,0,0,0-5.959-5.839c-3.56,0-5.679,2.679-5.919,5.839Z" style="fill: #181716"/>
    <path d="M1899.941,298.72c.119,3.039,2.759,4,5.559,4,2.12,0,5-.48,5-3.079,0-2.64-3.36-3.08-6.759-3.839-3.359-.76-6.759-1.88-6.759-5.839,0-4.16,4.119-5.879,7.719-5.879,4.559,0,8.2,1.439,8.478,6.478h-3.4c-.24-2.639-2.56-3.479-4.8-3.479-2.04,0-4.4.56-4.4,2.639,0,2.44,3.6,2.84,6.759,3.6,3.4.76,6.758,1.88,6.758,5.879,0,4.919-4.6,6.519-8.8,6.519-4.638,0-8.558-1.88-8.757-7Z" style="fill: #181716"/>
  </g>
  <rect x="1587.853" y="330.565" width="34.016" height="34.016" style="fill: #fcbe00"/>
  <g>
    <path d="M1656.181,344.626c-.8-4.039-4.039-6.079-8-6.079-6.8,0-9.677,5.6-9.677,11.558,0,6.519,2.878,11.958,9.717,11.958,5,0,7.879-3.519,8.239-8.239h3.8c-.719,7.12-5.159,11.438-12.357,11.438-8.879,0-13.2-6.558-13.2-14.877,0-8.278,4.718-15.037,13.517-15.037,5.959,0,10.878,3.2,11.758,9.278Z" style="fill: #181716"/>
    <path d="M1664.423,336.028h3.4v10.918h.08c1.12-2.48,4.039-3.52,6.519-3.52,5.439,0,7.119,3.12,7.119,7.559v13.6h-3.4v-14a3.9,3.9,0,0,0-4.2-4.159c-4.119,0-6.119,2.759-6.119,6.479v11.678h-3.4Z" style="fill: #181716"/>
    <path d="M1690.263,340.187h-3.4v-4.159h3.4Zm-3.4,3.719h3.4v20.677h-3.4Z" style="fill: #181716"/>
    <path d="M1695.544,343.906h3.2v3.04h.08a7.622,7.622,0,0,1,6.679-3.52c2.519,0,4.839,1,5.679,3.52a7.65,7.65,0,0,1,6.479-3.52c4.119,0,6.879,1.72,6.879,6v15.157h-3.4V351.025c0-2.559-.679-4.6-4-4.6a5.008,5.008,0,0,0-5.4,5.279v12.878h-3.4V351.025c0-2.68-.839-4.6-3.878-4.6a5.577,5.577,0,0,0-5.52,5.279v12.878h-3.4Z" style="fill: #181716"/>
    <path d="M1733.262,340.187h-3.4v-4.159h3.4Zm-3.4,3.719h3.4v20.677h-3.4Z" style="fill: #181716"/>
    <path d="M1756.179,358.024c-.92,4.559-4.2,7.039-8.838,7.039-6.6,0-9.718-4.559-9.918-10.879,0-6.2,4.08-10.758,9.718-10.758,7.319,0,9.559,6.839,9.359,11.838h-15.478c-.12,3.6,1.92,6.8,6.44,6.8,2.8,0,4.758-1.36,5.358-4.039Zm-3.279-5.759a5.949,5.949,0,0,0-5.959-5.839c-3.56,0-5.679,2.679-5.919,5.839Z" style="fill: #181716"/>
  </g>
  <rect x="1587.853" y="389.901" width="34.016" height="34.016" style="fill: #a6a6a7"/>
  <g>
    <path d="M1636.184,395.364h5.2l9,24,9.039-24h5.2v28.555h-3.6V400.163h-.08l-8.918,23.756h-3.24l-8.918-23.756h-.08v23.756h-3.6Z" style="fill: #181716"/>
    <path d="M1688.02,417.36c-.92,4.559-4.2,7.039-8.838,7.039-6.6,0-9.718-4.559-9.919-10.879,0-6.2,4.08-10.758,9.719-10.758,7.318,0,9.559,6.839,9.358,11.838h-15.477c-.12,3.6,1.92,6.8,6.439,6.8,2.8,0,4.759-1.36,5.359-4.039Zm-3.279-5.759a5.949,5.949,0,0,0-5.959-5.839c-3.56,0-5.679,2.679-5.919,5.839Zm-5.159-16.917h4.359L1678.7,400.4h-2.56Z" style="fill: #181716"/>
    <path d="M1696.583,403.242h4.12v3h-4.12v12.838c0,1.56.44,1.84,2.559,1.84h1.561v3h-2.6c-3.519,0-4.92-.72-4.92-4.519V406.241h-3.518v-3h3.518v-6.2h3.4Z" style="fill: #181716"/>
    <path d="M1722.78,423.839a4.6,4.6,0,0,1-2.44.56c-1.76,0-2.879-.96-2.879-3.2a9.176,9.176,0,0,1-7.28,3.2c-3.758,0-6.839-1.68-6.839-5.8,0-4.679,3.48-5.678,7-6.359,3.76-.719,6.959-.48,6.959-3.039,0-2.96-2.439-3.439-4.6-3.439-2.879,0-5,.879-5.159,3.919h-3.4c.2-5.119,4.16-6.919,8.759-6.919,3.72,0,7.759.84,7.759,5.679v10.638c0,1.6,0,2.32,1.08,2.32a2.923,2.923,0,0,0,1.04-.2Zm-5.52-10.6c-1.319.96-3.879,1-6.159,1.4-2.239.4-4.159,1.2-4.159,3.72,0,2.239,1.92,3.039,4,3.039,4.48,0,6.319-2.8,6.319-4.679Z" style="fill: #181716"/>
    <path d="M1726.142,395.364h3.4v28.555h-3.4Z" style="fill: #181716"/>
    <path d="M1735.022,395.364h3.4v28.555h-3.4Z" style="fill: #181716"/>
    <path d="M1760.818,423.919h-3.2v-3.28h-.08a7.2,7.2,0,0,1-6.719,3.76c-5.439,0-7.119-3.12-7.119-7.559v-13.6h3.4v14a3.9,3.9,0,0,0,4.2,4.159c4.12,0,6.12-2.76,6.12-6.479V403.242h3.4Z" style="fill: #181716"/>
    <path d="M1765.821,403.242h3.2V407.6h.08c1.64-3.319,3.92-4.959,7.6-4.839v3.6c-5.479,0-7.479,3.119-7.479,8.358v9.2h-3.4Z" style="fill: #181716"/>
    <path d="M1795.978,422.159c0,6.719-3.079,10.158-9.6,10.158-3.879,0-8.359-1.559-8.559-6.078h3.4c.161,2.479,3.12,3.359,5.36,3.359,4.439,0,6.2-3.2,6.2-7.839V420.4h-.08a6.89,6.89,0,0,1-6.44,3.759c-6.158,0-9.238-4.838-9.238-10.478,0-4.879,2.4-10.918,9.559-10.918a6.749,6.749,0,0,1,6.159,3.44h.04v-2.96h3.2Zm-3.359-9c0-3.639-1.6-7.4-5.879-7.4-4.359,0-6.119,3.559-6.119,7.518,0,3.72,1.359,7.879,5.839,7.879S1792.619,417.04,1792.619,413.16Z" style="fill: #181716"/>
    <path d="M1804.7,399.523h-3.4v-4.159h3.4Zm-3.4,3.719h3.4v20.677h-3.4Z" style="fill: #181716"/>
    <path d="M1827.617,417.36c-.92,4.559-4.2,7.039-8.838,7.039-6.6,0-9.719-4.559-9.919-10.879,0-6.2,4.08-10.758,9.719-10.758,7.318,0,9.558,6.839,9.358,11.838H1812.46c-.12,3.6,1.92,6.8,6.439,6.8,2.8,0,4.759-1.36,5.358-4.039Zm-3.279-5.759a5.95,5.95,0,0,0-5.959-5.839c-3.56,0-5.679,2.679-5.919,5.839Z" style="fill: #181716"/>
  </g>
  <rect x="1587.853" y="449.245" width="34.016" height="34.016" style="fill: #f07d2f"/>
  <g>
    <path d="M1643.864,454.7h4.2l11.158,28.556h-4.2l-3.119-8.6h-12.078l-3.2,8.6h-3.92Zm-2.839,16.758h9.678l-4.759-13.318h-.08Z" style="fill: #181716"/>
    <path d="M1678.583,483.255h-3.2v-3.28h-.08a7.2,7.2,0,0,1-6.718,3.76c-5.44,0-7.12-3.12-7.12-7.559v-13.6h3.4v14a3.9,3.9,0,0,0,4.2,4.159c4.119,0,6.119-2.76,6.119-6.479V462.578h3.4Z" style="fill: #181716"/>
    <path d="M1688.424,462.578h4.121v3h-4.121v12.838c0,1.56.441,1.84,2.56,1.84h1.561v3h-2.6c-3.52,0-4.92-.72-4.92-4.519V465.577h-3.519v-3h3.519v-6.2h3.4Z" style="fill: #181716"/>
    <path d="M1696.185,462.578h3.2v4.359h.081c1.639-3.319,3.919-4.959,7.6-4.839v3.6c-5.478,0-7.478,3.12-7.478,8.359v9.2h-3.4Z" style="fill: #181716"/>
    <path d="M1726.582,476.7c-.92,4.559-4.2,7.039-8.838,7.039-6.6,0-9.719-4.559-9.919-10.879,0-6.2,4.08-10.758,9.719-10.758,7.318,0,9.558,6.839,9.358,11.838h-15.478c-.12,3.6,1.92,6.8,6.44,6.8,2.8,0,4.759-1.36,5.358-4.039Zm-3.28-5.759a5.949,5.949,0,0,0-5.959-5.839c-3.559,0-5.678,2.679-5.919,5.839Z" style="fill: #181716"/>
    <path d="M1732.505,476.736c.119,3.039,2.758,4,5.558,4,2.12,0,5-.48,5-3.08,0-2.639-3.359-3.079-6.759-3.839-3.359-.76-6.758-1.879-6.758-5.839,0-4.159,4.119-5.879,7.718-5.879,4.56,0,8.2,1.44,8.479,6.479h-3.4c-.24-2.639-2.559-3.479-4.8-3.479-2.04,0-4.4.559-4.4,2.639,0,2.44,3.6,2.84,6.759,3.6,3.4.759,6.759,1.88,6.759,5.879,0,4.919-4.6,6.519-8.8,6.519-4.639,0-8.559-1.88-8.758-7Z" style="fill: #181716"/>
    <path d="M1765.143,458.859h-3.4V454.7h3.4Zm-3.4,3.719h3.4v20.677h-3.4Z" style="fill: #181716"/>
    <path d="M1770.423,462.578h3.2v3.28h.08a7.2,7.2,0,0,1,6.719-3.76c5.439,0,7.119,3.12,7.119,7.559v13.6h-3.4v-14a3.9,3.9,0,0,0-4.2-4.159c-4.119,0-6.119,2.759-6.119,6.478v11.679h-3.4Z" style="fill: #181716"/>
    <path d="M1811.14,483.255h-3.4v-2.8h-.08c-1.119,2.28-3.759,3.28-6.6,3.28-6.358,0-9.518-5.039-9.518-10.879s3.12-10.758,9.438-10.758c2.12,0,5.159.8,6.679,3.24h.08V454.7h3.4Zm-9.6-2.52c4.558,0,6.318-3.919,6.318-7.8,0-4.079-1.84-7.838-6.519-7.838-4.639,0-6.2,3.959-6.2,8C1795.143,476.976,1797.143,480.735,1801.543,480.735Z" style="fill: #181716"/>
    <path d="M1833.5,483.255h-3.2v-3.28h-.08a7.2,7.2,0,0,1-6.718,3.76c-5.44,0-7.12-3.12-7.12-7.559v-13.6h3.4v14a3.9,3.9,0,0,0,4.2,4.159c4.119,0,6.119-2.76,6.119-6.479V462.578h3.4Z" style="fill: #181716"/>
    <path d="M1840.7,476.736c.119,3.039,2.759,4,5.558,4,2.12,0,5-.48,5-3.08,0-2.639-3.359-3.079-6.758-3.839-3.36-.76-6.759-1.879-6.759-5.839,0-4.159,4.119-5.879,7.719-5.879,4.559,0,8.2,1.44,8.478,6.479h-3.4c-.241-2.639-2.56-3.479-4.8-3.479-2.04,0-4.4.559-4.4,2.639,0,2.44,3.6,2.84,6.759,3.6,3.4.759,6.759,1.88,6.759,5.879,0,4.919-4.6,6.519-8.8,6.519-4.638,0-8.558-1.88-8.758-7Z" style="fill: #181716"/>
    <path d="M1863.341,462.578h4.121v3h-4.121v12.838c0,1.56.441,1.84,2.56,1.84h1.561v3h-2.6c-3.52,0-4.92-.72-4.92-4.519V465.577h-3.519v-3h3.519v-6.2h3.4Z" style="fill: #181716"/>
    <path d="M1871.1,462.578h3.2v4.359h.08c1.64-3.319,3.92-4.959,7.6-4.839v3.6c-5.478,0-7.478,3.12-7.478,8.359v9.2h-3.4Z" style="fill: #181716"/>
    <path d="M1888.141,458.859h-3.4V454.7h3.4Zm-3.4,3.719h3.4v20.677h-3.4Z" style="fill: #181716"/>
    <path d="M1911.058,476.7c-.92,4.559-4.2,7.039-8.838,7.039-6.6,0-9.718-4.559-9.919-10.879,0-6.2,4.08-10.758,9.719-10.758,7.319,0,9.559,6.839,9.359,11.838H1895.9c-.12,3.6,1.92,6.8,6.439,6.8,2.8,0,4.759-1.36,5.359-4.039Zm-3.279-5.759a5.949,5.949,0,0,0-5.959-5.839c-3.56,0-5.679,2.679-5.919,5.839Z" style="fill: #181716"/>
    <path d="M1916.981,476.736c.119,3.039,2.759,4,5.559,4,2.12,0,5-.48,5-3.08,0-2.639-3.36-3.079-6.759-3.839-3.359-.76-6.759-1.879-6.759-5.839,0-4.159,4.119-5.879,7.719-5.879,4.559,0,8.2,1.44,8.478,6.479h-3.4c-.24-2.639-2.56-3.479-4.8-3.479-2.04,0-4.4.559-4.4,2.639,0,2.44,3.6,2.84,6.759,3.6,3.4.759,6.758,1.88,6.758,5.879,0,4.919-4.6,6.519-8.8,6.519-4.639,0-8.559-1.88-8.758-7Z" style="fill: #181716"/>
  </g>
  <g>
    <path d="M1635.546,510.578h3.2v3.039h.08a7.623,7.623,0,0,1,6.679-3.519c2.519,0,4.839,1,5.679,3.519a7.652,7.652,0,0,1,6.479-3.519c4.119,0,6.879,1.72,6.879,6v15.158h-3.4V517.7c0-2.56-.679-4.6-4-4.6a5.008,5.008,0,0,0-5.4,5.279v12.878h-3.4V517.7c0-2.68-.839-4.6-3.878-4.6a5.576,5.576,0,0,0-5.52,5.279v12.878h-3.4Z" style="fill: #181716"/>
    <path d="M1687.983,531.175a4.6,4.6,0,0,1-2.44.56c-1.76,0-2.879-.96-2.879-3.2a9.176,9.176,0,0,1-7.28,3.2c-3.758,0-6.838-1.68-6.838-5.8,0-4.679,3.479-5.678,7-6.359,3.759-.719,6.959-.48,6.959-3.039,0-2.96-2.44-3.439-4.6-3.439-2.879,0-5,.879-5.159,3.919h-3.4c.2-5.119,4.161-6.919,8.759-6.919,3.72,0,7.759.84,7.759,5.679v10.638c0,1.6,0,2.32,1.08,2.32a2.923,2.923,0,0,0,1.04-.2Zm-5.519-10.6c-1.32.96-3.879,1-6.16,1.4-2.239.4-4.159,1.2-4.159,3.72,0,2.239,1.92,3.039,4,3.039,4.48,0,6.32-2.8,6.32-4.679Z" style="fill: #181716"/>
    <path d="M1691.145,510.578h3.2v3.28h.08a7.2,7.2,0,0,1,6.719-3.76c5.44,0,7.119,3.12,7.119,7.559v13.6h-3.4v-14a3.9,3.9,0,0,0-4.2-4.159c-4.119,0-6.119,2.759-6.119,6.478v11.679h-3.4Z" style="fill: #181716"/>
    <path d="M1730.5,531.255h-3.2v-3.28h-.08a7.2,7.2,0,0,1-6.718,3.76c-5.44,0-7.12-3.12-7.12-7.559v-13.6h3.4v14a3.9,3.9,0,0,0,4.2,4.159c4.119,0,6.119-2.76,6.119-6.479V510.578h3.4Z" style="fill: #181716"/>
    <path d="M1737.024,513.577h-3.479v-3h3.479V507.5c0-3.36,2-5.119,5.72-5.119a8.357,8.357,0,0,1,2.2.319v2.96a6.373,6.373,0,0,0-1.92-.28c-1.64,0-2.6.52-2.6,2.319v2.88h4v3h-4v17.678h-3.4Z" style="fill: #181716"/>
    <path d="M1765.782,531.175a4.6,4.6,0,0,1-2.441.56c-1.759,0-2.878-.96-2.878-3.2a9.176,9.176,0,0,1-7.28,3.2c-3.759,0-6.839-1.68-6.839-5.8,0-4.679,3.48-5.678,7-6.359,3.76-.719,6.959-.48,6.959-3.039,0-2.96-2.439-3.439-4.6-3.439-2.879,0-5,.879-5.159,3.919h-3.4c.2-5.119,4.16-6.919,8.759-6.919,3.72,0,7.759.84,7.759,5.679v10.638c0,1.6,0,2.32,1.08,2.32a2.926,2.926,0,0,0,1.04-.2Zm-5.52-10.6c-1.319.96-3.879,1-6.159,1.4-2.239.4-4.159,1.2-4.159,3.72,0,2.239,1.92,3.039,4,3.039,4.48,0,6.319-2.8,6.319-4.679Z" style="fill: #181716"/>
    <path d="M1782.982,517.217a4.813,4.813,0,0,0-5.119-4.119c-4.92,0-6.44,3.879-6.44,8.078,0,3.8,1.72,7.559,6.04,7.559,3.279,0,5.239-1.92,5.678-5.039h3.48c-.76,5.039-3.919,8.039-9.118,8.039-6.32,0-9.679-4.4-9.679-10.559,0-6.2,3.2-11.078,9.759-11.078,4.678,0,8.438,2.2,8.918,7.119Z" style="fill: #181716"/>
    <path d="M1795.142,510.578h4.12v3h-4.12v12.838c0,1.56.441,1.84,2.56,1.84h1.56v3h-2.6c-3.52,0-4.92-.72-4.92-4.519V513.577h-3.519v-3h3.519v-6.2h3.4Z" style="fill: #181716"/>
    <path d="M1820.14,531.255h-3.2v-3.28h-.08a7.2,7.2,0,0,1-6.719,3.76c-5.439,0-7.119-3.12-7.119-7.559v-13.6h3.4v14a3.9,3.9,0,0,0,4.2,4.159c4.119,0,6.119-2.76,6.119-6.479V510.578h3.4Z" style="fill: #181716"/>
    <path d="M1825.143,510.578h3.2v4.359h.081c1.639-3.319,3.919-4.959,7.6-4.839v3.6c-5.478,0-7.478,3.12-7.478,8.359v9.2h-3.4Z" style="fill: #181716"/>
    <path d="M1842.182,506.859h-3.4V502.7h3.4Zm-3.4,3.719h3.4v20.677h-3.4Z" style="fill: #181716"/>
    <path d="M1865.1,524.7c-.92,4.559-4.2,7.039-8.838,7.039-6.6,0-9.718-4.559-9.919-10.879,0-6.2,4.081-10.758,9.719-10.758,7.319,0,9.559,6.839,9.359,11.838h-15.478c-.12,3.6,1.92,6.8,6.44,6.8,2.8,0,4.758-1.36,5.358-4.039Zm-3.279-5.759a5.949,5.949,0,0,0-5.959-5.839c-3.56,0-5.679,2.679-5.919,5.839ZM1850.3,502.02h4.36l3.439,5.719h-2.559Z" style="fill: #181716"/>
    <path d="M1868.822,510.578h3.2v4.359h.08c1.64-3.319,3.92-4.959,7.6-4.839v3.6c-5.479,0-7.479,3.12-7.479,8.359v9.2h-3.4Z" style="fill: #181716"/>
    <path d="M1899.178,524.7c-.92,4.559-4.2,7.039-8.838,7.039-6.6,0-9.718-4.559-9.918-10.879,0-6.2,4.08-10.758,9.718-10.758,7.319,0,9.559,6.839,9.359,11.838h-15.478c-.12,3.6,1.92,6.8,6.44,6.8,2.8,0,4.758-1.36,5.358-4.039Zm-3.279-5.759a5.949,5.949,0,0,0-5.959-5.839c-3.559,0-5.679,2.679-5.919,5.839Z" style="fill: #181716"/>
    <path d="M1905.1,524.736c.119,3.039,2.759,4,5.559,4,2.12,0,5-.48,5-3.08,0-2.639-3.36-3.079-6.759-3.839-3.359-.76-6.759-1.879-6.759-5.839,0-4.159,4.119-5.879,7.719-5.879,4.56,0,8.2,1.44,8.479,6.479h-3.4c-.24-2.639-2.559-3.479-4.8-3.479-2.04,0-4.4.559-4.4,2.639,0,2.44,3.6,2.84,6.759,3.6,3.4.759,6.758,1.88,6.758,5.879,0,4.919-4.6,6.519-8.8,6.519-4.639,0-8.559-1.88-8.758-7Z" style="fill: #181716"/>
  </g>
  <g>
    <path d="M1653.182,572.7c-.92,4.559-4.2,7.039-8.838,7.039-6.6,0-9.718-4.559-9.919-10.879,0-6.2,4.081-10.758,9.719-10.758,7.319,0,9.559,6.839,9.359,11.838h-15.478c-.12,3.6,1.92,6.8,6.44,6.8,2.8,0,4.758-1.36,5.358-4.039Zm-3.279-5.759a5.949,5.949,0,0,0-5.959-5.839c-3.56,0-5.679,2.679-5.919,5.839Z" style="fill: #181716"/>
    <path d="M1661.744,558.578h4.12v3h-4.12v12.838c0,1.56.44,1.84,2.559,1.84h1.561v3h-2.6c-3.519,0-4.92-.72-4.92-4.519V561.577h-3.518v-3h3.518v-6.2h3.4Z" style="fill: #181716"/>
    <path d="M1694.783,565.217a4.813,4.813,0,0,0-5.119-4.119c-4.92,0-6.44,3.879-6.44,8.078,0,3.8,1.72,7.559,6.039,7.559,3.28,0,5.24-1.92,5.679-5.039h3.48c-.76,5.039-3.919,8.039-9.119,8.039-6.319,0-9.678-4.4-9.678-10.559,0-6.2,3.2-11.078,9.758-11.078,4.679,0,8.439,2.2,8.918,7.119Z" style="fill: #181716"/>
    <path d="M1711.143,558.1c6.559,0,10.038,4.759,10.038,10.838,0,6.039-3.479,10.8-10.038,10.8s-10.039-4.76-10.039-10.8C1701.1,562.857,1704.584,558.1,1711.143,558.1Zm0,18.637c3.559,0,6.439-2.8,6.439-7.8,0-5.039-2.88-7.838-6.439-7.838s-6.439,2.8-6.439,7.838C1704.7,573.935,1707.584,576.735,1711.143,576.735Z" style="fill: #181716"/>
    <path d="M1725.183,558.578h3.2v3.28h.081a7.2,7.2,0,0,1,6.718-3.76c5.44,0,7.119,3.12,7.119,7.559v13.6h-3.4v-14a3.9,3.9,0,0,0-4.2-4.159c-4.119,0-6.119,2.759-6.119,6.478v11.679h-3.4Z" style="fill: #181716"/>
    <path d="M1749.5,572.736c.119,3.039,2.758,4,5.558,4,2.12,0,5-.48,5-3.08,0-2.639-3.359-3.079-6.759-3.839-3.359-.76-6.758-1.879-6.758-5.839,0-4.159,4.119-5.879,7.718-5.879,4.56,0,8.2,1.44,8.479,6.479h-3.4c-.24-2.639-2.559-3.479-4.8-3.479-2.04,0-4.4.559-4.4,2.639,0,2.44,3.6,2.84,6.759,3.6,3.4.759,6.759,1.88,6.759,5.879,0,4.919-4.6,6.519-8.8,6.519-4.639,0-8.559-1.88-8.758-7Z" style="fill: #181716"/>
    <path d="M1772.142,558.578h4.12v3h-4.12v12.838c0,1.56.441,1.84,2.56,1.84h1.56v3h-2.6c-3.52,0-4.92-.72-4.92-4.519V561.577h-3.519v-3h3.519v-6.2h3.4Z" style="fill: #181716"/>
    <path d="M1779.9,558.578h3.2v4.359h.08c1.64-3.319,3.92-4.959,7.6-4.839v3.6c-5.479,0-7.479,3.12-7.479,8.359v9.2h-3.4Z" style="fill: #181716"/>
    <path d="M1810.46,579.255h-3.2v-3.28h-.08a7.2,7.2,0,0,1-6.718,3.76c-5.44,0-7.12-3.12-7.12-7.559v-13.6h3.4v14a3.9,3.9,0,0,0,4.2,4.159c4.119,0,6.119-2.76,6.119-6.479V558.578h3.4Z" style="fill: #181716"/>
    <path d="M1829.621,565.217a4.814,4.814,0,0,0-5.119-4.119c-4.92,0-6.44,3.879-6.44,8.078,0,3.8,1.72,7.559,6.039,7.559,3.28,0,5.239-1.92,5.679-5.039h3.479c-.759,5.039-3.919,8.039-9.118,8.039-6.319,0-9.678-4.4-9.678-10.559,0-6.2,3.2-11.078,9.758-11.078,4.679,0,8.439,2.2,8.918,7.119Z" style="fill: #181716"/>
    <path d="M1841.781,558.578h4.12v3h-4.12v12.838c0,1.56.44,1.84,2.559,1.84h1.561v3h-2.6c-3.519,0-4.92-.72-4.92-4.519V561.577h-3.518v-3h3.518v-6.2h3.4Z" style="fill: #181716"/>
    <path d="M1853.261,554.859h-3.4V550.7h3.4Zm-3.4,3.719h3.4v20.677h-3.4Z" style="fill: #181716"/>
    <path d="M1867.461,558.1c6.558,0,10.038,4.759,10.038,10.838,0,6.039-3.48,10.8-10.038,10.8s-10.039-4.76-10.039-10.8C1857.422,562.857,1860.9,558.1,1867.461,558.1Zm0,18.637c3.558,0,6.438-2.8,6.438-7.8,0-5.039-2.88-7.838-6.438-7.838s-6.44,2.8-6.44,7.838C1861.021,573.935,1863.9,576.735,1867.461,576.735Z" style="fill: #181716"/>
    <path d="M1881.5,558.578h3.2v3.28h.08a7.2,7.2,0,0,1,6.719-3.76c5.439,0,7.119,3.12,7.119,7.559v13.6h-3.4v-14a3.9,3.9,0,0,0-4.2-4.159c-4.119,0-6.119,2.759-6.119,6.478v11.679h-3.4Z" style="fill: #181716"/>
  </g>
  <rect x="1587.853" y="604.581" width="34.016" height="34.016" style="fill: #5d99d3"/>
  <g>
    <path d="M1643.864,610.043h4.2l11.158,28.555h-4.2L1651.9,630h-12.078l-3.2,8.6h-3.92Zm-2.839,16.758h9.678l-4.759-13.318h-.08Z" style="fill: #181716"/>
    <path d="M1679.3,636.839c0,6.718-3.079,10.158-9.6,10.158-3.879,0-8.359-1.56-8.559-6.079h3.4c.16,2.48,3.12,3.36,5.359,3.36,4.439,0,6.2-3.2,6.2-7.839v-1.36h-.08a6.891,6.891,0,0,1-6.439,3.759c-6.159,0-9.239-4.839-9.239-10.478,0-4.879,2.4-10.918,9.559-10.918a6.748,6.748,0,0,1,6.159,3.44h.04v-2.96h3.2Zm-3.359-9c0-3.639-1.6-7.4-5.879-7.4-4.359,0-6.119,3.559-6.119,7.518,0,3.719,1.359,7.879,5.839,7.879S1675.943,631.719,1675.943,627.84Z" style="fill: #181716"/>
    <path d="M1684.3,617.922h3.2v4.359h.08c1.639-3.319,3.92-4.959,7.6-4.839v3.6c-5.478,0-7.478,3.12-7.478,8.359v9.2h-3.4Z" style="fill: #181716"/>
    <path d="M1705.984,617.442c6.559,0,10.038,4.759,10.038,10.838,0,6.039-3.479,10.8-10.038,10.8s-10.039-4.759-10.039-10.8C1695.945,622.2,1699.424,617.442,1705.984,617.442Zm0,18.637c3.559,0,6.439-2.8,6.439-7.8,0-5.039-2.88-7.838-6.439-7.838s-6.439,2.8-6.439,7.838C1699.545,633.279,1702.424,636.079,1705.984,636.079Z" style="fill: #181716"/>
    <path d="M1738.341,638.518a4.586,4.586,0,0,1-2.44.56c-1.76,0-2.879-.96-2.879-3.2a9.177,9.177,0,0,1-7.279,3.2c-3.759,0-6.839-1.679-6.839-5.8,0-4.679,3.479-5.679,7-6.359,3.76-.72,6.959-.48,6.959-3.039,0-2.96-2.439-3.439-4.6-3.439-2.879,0-5,.879-5.159,3.919h-3.4c.2-5.12,4.159-6.919,8.759-6.919,3.719,0,7.758.84,7.758,5.679v10.638c0,1.6,0,2.32,1.08,2.32a2.919,2.919,0,0,0,1.04-.2Zm-5.519-10.6c-1.319.96-3.879,1-6.159,1.4-2.24.4-4.159,1.2-4.159,3.719,0,2.24,1.919,3.04,4,3.04,4.479,0,6.319-2.8,6.319-4.679Z" style="fill: #181716"/>
    <path d="M1741.7,610.043h3.4V638.6h-3.4Z" style="fill: #181716"/>
    <path d="M1753.983,614.2h-3.4v-4.159h3.4Zm-3.4,3.72h3.4V638.6h-3.4Z" style="fill: #181716"/>
    <path d="M1759.262,617.922h3.2v3.039h.08a7.621,7.621,0,0,1,6.678-3.519c2.52,0,4.84,1,5.68,3.519a7.648,7.648,0,0,1,6.479-3.519c4.119,0,6.878,1.72,6.878,6V638.6h-3.4V625.041c0-2.56-.68-4.6-4-4.6a5.008,5.008,0,0,0-5.4,5.278V638.6h-3.4V625.041c0-2.68-.84-4.6-3.879-4.6a5.576,5.576,0,0,0-5.519,5.278V638.6h-3.4Z" style="fill: #181716"/>
    <path d="M1811.019,632.039c-.92,4.56-4.2,7.039-8.838,7.039-6.6,0-9.718-4.559-9.919-10.878,0-6.2,4.08-10.758,9.719-10.758,7.318,0,9.559,6.839,9.359,11.838h-15.478c-.12,3.6,1.92,6.8,6.439,6.8,2.8,0,4.759-1.36,5.359-4.04Zm-3.279-5.759a5.949,5.949,0,0,0-5.959-5.838c-3.56,0-5.679,2.679-5.919,5.838Z" style="fill: #181716"/>
    <path d="M1814.862,617.922h3.2V621.2h.08a7.2,7.2,0,0,1,6.719-3.759c5.439,0,7.119,3.119,7.119,7.559v13.6h-3.4v-14a3.9,3.9,0,0,0-4.2-4.159c-4.12,0-6.12,2.759-6.12,6.478V638.6h-3.4Z" style="fill: #181716"/>
    <path d="M1841.821,617.922h4.12v3h-4.12v12.838c0,1.56.44,1.84,2.56,1.84h1.56v3h-2.6c-3.519,0-4.919-.719-4.919-4.519V620.921H1834.9v-3h3.519v-6.2h3.4Z" style="fill: #181716"/>
    <path d="M1868.019,638.518a4.586,4.586,0,0,1-2.44.56c-1.76,0-2.879-.96-2.879-3.2a9.178,9.178,0,0,1-7.279,3.2c-3.759,0-6.839-1.679-6.839-5.8,0-4.679,3.479-5.679,7-6.359,3.759-.72,6.959-.48,6.959-3.039,0-2.96-2.44-3.439-4.6-3.439-2.879,0-5,.879-5.159,3.919h-3.4c.2-5.12,4.16-6.919,8.759-6.919,3.72,0,7.759.84,7.759,5.679v10.638c0,1.6,0,2.32,1.08,2.32a2.923,2.923,0,0,0,1.04-.2Zm-5.519-10.6c-1.32.96-3.879,1-6.16,1.4-2.239.4-4.159,1.2-4.159,3.719,0,2.24,1.92,3.04,4,3.04,4.48,0,6.32-2.8,6.32-4.679Z" style="fill: #181716"/>
    <path d="M1874.781,614.2h-3.4v-4.159h3.4Zm-3.4,3.72h3.4V638.6h-3.4Z" style="fill: #181716"/>
    <path d="M1879.94,617.922h3.2v4.359h.08c1.64-3.319,3.92-4.959,7.6-4.839v3.6c-5.478,0-7.478,3.12-7.478,8.359v9.2h-3.4Z" style="fill: #181716"/>
    <path d="M1910.3,632.039c-.92,4.56-4.2,7.039-8.838,7.039-6.6,0-9.719-4.559-9.919-10.878,0-6.2,4.08-10.758,9.718-10.758,7.319,0,9.559,6.839,9.359,11.838h-15.478c-.12,3.6,1.92,6.8,6.44,6.8,2.8,0,4.759-1.36,5.358-4.04Zm-3.28-5.759a5.949,5.949,0,0,0-5.959-5.838c-3.559,0-5.678,2.679-5.919,5.838Z" style="fill: #181716"/>
    <path d="M1914.9,634.159h4.44V638.2c0,3-1.321,5.4-4.4,6.279v-2a3.826,3.826,0,0,0,2.319-3.88H1914.9Z" style="fill: #181716"/>
  </g>
  <g>
    <path d="M1635.666,658.043h3.4v10.678h.08c1.119-2.279,3.759-3.279,6.6-3.279,6.359,0,9.518,5.039,9.518,10.878s-3.119,10.758-9.438,10.758c-2.12,0-5.159-.8-6.679-3.239h-.08V686.6h-3.4Zm9.6,10.4c-4.559,0-6.319,3.919-6.319,7.8,0,4.08,1.84,7.839,6.519,7.839,4.639,0,6.2-3.96,6.2-8C1651.663,672.2,1649.663,668.442,1645.264,668.442Z" style="fill: #181716"/>
    <path d="M1668.184,665.442c6.559,0,10.038,4.759,10.038,10.838,0,6.039-3.479,10.8-10.038,10.8s-10.039-4.759-10.039-10.8C1658.145,670.2,1661.625,665.442,1668.184,665.442Zm0,18.637c3.559,0,6.439-2.8,6.439-7.8,0-5.039-2.88-7.838-6.439-7.838s-6.439,2.8-6.439,7.838C1661.745,681.279,1664.625,684.079,1668.184,684.079Z" style="fill: #181716"/>
    <path d="M1685.824,662.2h-3.4v-4.159h3.4Zm-3.4,3.72h3.4V686.6h-3.4Z" style="fill: #181716"/>
    <path d="M1693.184,680.079c.119,3.04,2.759,4,5.559,4,2.12,0,5-.48,5-3.08,0-2.639-3.36-3.079-6.759-3.839-3.359-.76-6.759-1.88-6.759-5.839,0-4.159,4.119-5.879,7.719-5.879,4.56,0,8.2,1.44,8.479,6.479h-3.4c-.24-2.64-2.559-3.479-4.8-3.479-2.04,0-4.4.559-4.4,2.639,0,2.44,3.6,2.84,6.759,3.6,3.4.76,6.758,1.88,6.758,5.879,0,4.92-4.6,6.519-8.8,6.519-4.639,0-8.559-1.88-8.758-7Z" style="fill: #181716"/>
    <path d="M1713.184,680.079c.119,3.04,2.759,4,5.559,4,2.12,0,5-.48,5-3.08,0-2.639-3.36-3.079-6.759-3.839-3.359-.76-6.759-1.88-6.759-5.839,0-4.159,4.119-5.879,7.719-5.879,4.56,0,8.2,1.44,8.479,6.479h-3.4c-.24-2.64-2.559-3.479-4.8-3.479-2.04,0-4.4.559-4.4,2.639,0,2.44,3.6,2.84,6.759,3.6,3.4.76,6.758,1.88,6.758,5.879,0,4.92-4.6,6.519-8.8,6.519-4.639,0-8.559-1.88-8.758-7Z" style="fill: #181716"/>
    <path d="M1740.023,665.442c6.559,0,10.038,4.759,10.038,10.838,0,6.039-3.479,10.8-10.038,10.8s-10.039-4.759-10.039-10.8C1729.984,670.2,1733.464,665.442,1740.023,665.442Zm0,18.637c3.559,0,6.439-2.8,6.439-7.8,0-5.039-2.88-7.838-6.439-7.838s-6.439,2.8-6.439,7.838C1733.584,681.279,1736.464,684.079,1740.023,684.079Z" style="fill: #181716"/>
    <path d="M1754.063,665.922h3.2V669.2h.08a7.2,7.2,0,0,1,6.719-3.759c5.44,0,7.119,3.119,7.119,7.559v13.6h-3.4v-14a3.9,3.9,0,0,0-4.2-4.159c-4.119,0-6.119,2.759-6.119,6.478V686.6h-3.4Z" style="fill: #181716"/>
    <path d="M1778.383,680.079c.12,3.04,2.759,4,5.559,4,2.12,0,5-.48,5-3.08,0-2.639-3.359-3.079-6.759-3.839-3.359-.76-6.759-1.88-6.759-5.839,0-4.159,4.12-5.879,7.719-5.879,4.56,0,8.2,1.44,8.479,6.479h-3.4c-.24-2.64-2.559-3.479-4.8-3.479-2.041,0-4.4.559-4.4,2.639,0,2.44,3.6,2.84,6.759,3.6,3.4.76,6.759,1.88,6.759,5.879,0,4.92-4.6,6.519-8.8,6.519-4.639,0-8.559-1.88-8.758-7Z" style="fill: #181716"/>
    <path d="M1825.06,680.039c-.92,4.56-4.2,7.039-8.838,7.039-6.6,0-9.718-4.559-9.919-10.878,0-6.2,4.08-10.758,9.719-10.758,7.318,0,9.559,6.839,9.359,11.838H1809.9c-.12,3.6,1.92,6.8,6.439,6.8,2.8,0,4.759-1.36,5.359-4.04Zm-3.279-5.759a5.949,5.949,0,0,0-5.959-5.838c-3.56,0-5.679,2.679-5.919,5.838Z" style="fill: #181716"/>
    <path d="M1833.622,665.922h4.12v3h-4.12v12.838c0,1.56.44,1.84,2.559,1.84h1.561v3h-2.6c-3.519,0-4.92-.719-4.92-4.519V668.921H1826.7v-3h3.518v-6.2h3.4Z" style="fill: #181716"/>
  </g>
  <g>
    <path d="M1640.264,713.922h4.12v3h-4.12v12.837c0,1.56.441,1.84,2.56,1.84h1.56v3h-2.6c-3.52,0-4.92-.719-4.92-4.519V716.922h-3.519v-3h3.519v-6.2h3.4Z" style="fill: #181716"/>
    <path d="M1666.463,734.518a4.583,4.583,0,0,1-2.441.56c-1.76,0-2.879-.959-2.879-3.2a9.174,9.174,0,0,1-7.279,3.2c-3.759,0-6.839-1.68-6.839-5.8,0-4.679,3.48-5.679,7-6.358,3.76-.72,6.959-.481,6.959-3.04,0-2.959-2.439-3.44-4.6-3.44-2.878,0-5,.88-5.159,3.92h-3.4c.2-5.119,4.159-6.919,8.759-6.919,3.719,0,7.758.84,7.758,5.679v10.638c0,1.6,0,2.32,1.081,2.32a2.926,2.926,0,0,0,1.04-.2Zm-5.52-10.6c-1.319.959-3.879,1-6.159,1.4-2.239.4-4.159,1.2-4.159,3.72,0,2.239,1.92,3.039,4,3.039,4.479,0,6.319-2.8,6.319-4.68Z" style="fill: #181716"/>
    <path d="M1669.745,706.043h3.4v10.678h.08c1.119-2.279,3.759-3.279,6.6-3.279,6.359,0,9.518,5.039,9.518,10.878s-3.119,10.758-9.438,10.758c-2.12,0-5.159-.8-6.679-3.239h-.08V734.6h-3.4Zm9.6,10.4c-4.559,0-6.319,3.92-6.319,7.8,0,4.079,1.84,7.839,6.519,7.839,4.639,0,6.2-3.959,6.2-8C1685.742,720.2,1683.742,716.441,1679.343,716.441Z" style="fill: #181716"/>
    <path d="M1711.662,734.518a4.583,4.583,0,0,1-2.441.56c-1.759,0-2.879-.959-2.879-3.2a9.172,9.172,0,0,1-7.279,3.2c-3.759,0-6.839-1.68-6.839-5.8,0-4.679,3.48-5.679,7-6.358,3.76-.72,6.959-.481,6.959-3.04,0-2.959-2.439-3.44-4.6-3.44-2.879,0-5,.88-5.16,3.92h-3.4c.2-5.119,4.159-6.919,8.759-6.919,3.72,0,7.759.84,7.759,5.679v10.638c0,1.6,0,2.32,1.08,2.32a2.926,2.926,0,0,0,1.04-.2Zm-5.52-10.6c-1.319.959-3.879,1-6.159,1.4-2.239.4-4.159,1.2-4.159,3.72,0,2.239,1.92,3.039,4,3.039,4.479,0,6.319-2.8,6.319-4.68Z" style="fill: #181716"/>
    <path d="M1728.862,720.56a4.815,4.815,0,0,0-5.119-4.119c-4.92,0-6.44,3.88-6.44,8.079,0,3.8,1.72,7.559,6.039,7.559,3.28,0,5.24-1.92,5.679-5.039h3.48c-.76,5.039-3.919,8.038-9.119,8.038-6.319,0-9.678-4.4-9.678-10.558,0-6.2,3.2-11.078,9.759-11.078,4.678,0,8.438,2.2,8.918,7.118Z" style="fill: #181716"/>
  </g>
  <g style="clip-path: url(#clip-path)">
    <g>
      <path d="M105.449,806.239h-3.328V785.923h-7.2V783.2c3.8,0,7.244-1.04,7.988-5.319h2.545Z" style="fill: #181716"/>
      <path d="M118.528,799.4c.235,2.76,2.428,4.319,5.09,4.319,4.072,0,6.069-3.639,6.265-10.958l-.079-.08a7.254,7.254,0,0,1-6.421,3.919c-5.638,0-8.771-3.879-8.771-9.478,0-5.479,3.759-9.238,9.124-9.238,5.168,0,9.514,2.839,9.514,13.557,0,9.8-2.9,15.277-9.632,15.277-4.659,0-7.987-2.439-8.418-7.318Zm5.051-18.516c-3.955,0-5.443,3.239-5.443,6.718,0,3.119,2.271,6,5.482,6,3.485,0,5.678-2.88,5.678-6.239C129.3,783.883,127.3,780.884,123.579,780.884Z" style="fill: #181716"/>
      <path d="M140.3,799.4c.235,2.76,2.428,4.319,5.091,4.319,4.072,0,6.069-3.639,6.264-10.958l-.078-.08a7.255,7.255,0,0,1-6.422,3.919c-5.638,0-8.77-3.879-8.77-9.478,0-5.479,3.759-9.238,9.123-9.238,5.168,0,9.515,2.839,9.515,13.557,0,9.8-2.9,15.277-9.632,15.277-4.66,0-7.988-2.439-8.419-7.318Zm5.051-18.516c-3.954,0-5.442,3.239-5.442,6.718,0,3.119,2.271,6,5.482,6,3.484,0,5.677-2.88,5.677-6.239C151.067,783.883,149.07,780.884,145.35,780.884Z" style="fill: #181716"/>
      <path d="M167.71,777.884c8.692,0,9.24,8.159,9.24,14.437,0,6.239-.548,14.4-9.24,14.4s-9.241-8.158-9.241-14.4C158.469,786.043,159.018,777.884,167.71,777.884Zm0,25.835c5.677,0,5.716-7.2,5.716-11.438,0-4.2-.039-11.4-5.716-11.4s-5.717,7.2-5.717,11.4C161.993,796.52,162.032,803.719,167.71,803.719Z" style="fill: #181716"/>
    </g>
    <g>
      <path d="M345.211,806.239h-3.329V785.923h-7.2V783.2c3.8,0,7.244-1.04,7.988-5.319h2.545Z" style="fill: #181716"/>
      <path d="M358.29,799.4c.235,2.76,2.427,4.319,5.09,4.319,4.072,0,6.069-3.639,6.265-10.958l-.079-.08a7.255,7.255,0,0,1-6.421,3.919c-5.639,0-8.771-3.879-8.771-9.478,0-5.479,3.759-9.238,9.123-9.238,5.169,0,9.515,2.839,9.515,13.557,0,9.8-2.9,15.277-9.632,15.277-4.66,0-7.988-2.439-8.418-7.318Zm5.05-18.516c-3.954,0-5.442,3.239-5.442,6.718,0,3.119,2.271,6,5.482,6,3.484,0,5.677-2.88,5.677-6.239C369.057,783.883,367.06,780.884,363.34,780.884Z" style="fill: #181716"/>
      <path d="M380.061,799.4c.235,2.76,2.428,4.319,5.091,4.319,4.071,0,6.068-3.639,6.264-10.958l-.078-.08a7.255,7.255,0,0,1-6.422,3.919c-5.638,0-8.77-3.879-8.77-9.478,0-5.479,3.758-9.238,9.123-9.238,5.168,0,9.514,2.839,9.514,13.557,0,9.8-2.9,15.277-9.631,15.277-4.66,0-7.988-2.439-8.419-7.318Zm5.051-18.516c-3.955,0-5.442,3.239-5.442,6.718,0,3.119,2.271,6,5.482,6,3.484,0,5.677-2.88,5.677-6.239C390.829,783.883,388.832,780.884,385.112,780.884Z" style="fill: #181716"/>
      <path d="M414.989,781.363h-11.2l-1.488,8.159.078.08a6.944,6.944,0,0,1,5.169-2.04c4.933,0,8.966,3.239,8.966,9.718,0,4.8-3.25,9.438-9.71,9.438-4.816,0-8.732-3-8.849-8.118h3.328a5.506,5.506,0,0,0,5.834,5.119c3.172,0,5.873-2.2,5.873-6.718a6.079,6.079,0,0,0-6.264-6.44,6.618,6.618,0,0,0-5.169,2.68l-2.858-.16,2.584-14.717h13.7Z" style="fill: #181716"/>
    </g>
    <g>
      <path d="M572.756,787.922c-.274-5.759,3.054-10.038,8.927-10.038,4.855,0,8.693,2.879,8.693,8.159,0,5-3.289,7.518-6.735,9.717-3.485,2.161-7.126,3.96-7.792,7.48H590.1v3H571.973c.548-6.719,3.876-9.118,7.792-11.6,4.7-2.96,7.087-4.719,7.087-8.638a5.1,5.1,0,0,0-5.365-5.119c-3.876,0-5.52,3.638-5.4,7.038Z" style="fill: #181716"/>
      <path d="M603.69,777.884c8.692,0,9.24,8.159,9.24,14.437,0,6.239-.548,14.4-9.24,14.4s-9.241-8.158-9.241-14.4C594.449,786.043,595,777.884,603.69,777.884Zm0,25.835c5.677,0,5.716-7.2,5.716-11.438,0-4.2-.039-11.4-5.716-11.4s-5.717,7.2-5.717,11.4C597.973,796.52,598.012,803.719,603.69,803.719Z" style="fill: #181716"/>
      <path d="M625.461,777.884c8.692,0,9.24,8.159,9.24,14.437,0,6.239-.548,14.4-9.24,14.4s-9.24-8.158-9.24-14.4C616.221,786.043,616.769,777.884,625.461,777.884Zm0,25.835c5.677,0,5.717-7.2,5.717-11.438,0-4.2-.04-11.4-5.717-11.4s-5.716,7.2-5.716,11.4C619.745,796.52,619.784,803.719,625.461,803.719Z" style="fill: #181716"/>
      <path d="M647.233,777.884c8.692,0,9.24,8.159,9.24,14.437,0,6.239-.548,14.4-9.24,14.4s-9.24-8.158-9.24-14.4C637.993,786.043,638.541,777.884,647.233,777.884Zm0,25.835c5.677,0,5.716-7.2,5.716-11.438,0-4.2-.039-11.4-5.716-11.4s-5.716,7.2-5.716,11.4C641.517,796.52,641.556,803.719,647.233,803.719Z" style="fill: #181716"/>
    </g>
    <g>
      <path d="M812.518,787.922c-.274-5.759,3.054-10.038,8.927-10.038,4.855,0,8.692,2.879,8.692,8.159,0,5-3.289,7.518-6.735,9.717-3.484,2.161-7.125,3.96-7.791,7.48h14.252v3H811.735c.548-6.719,3.876-9.118,7.792-11.6,4.7-2.96,7.086-4.719,7.086-8.638a5.1,5.1,0,0,0-5.364-5.119c-3.876,0-5.52,3.638-5.4,7.038Z" style="fill: #181716"/>
      <path d="M843.451,777.884c8.693,0,9.241,8.159,9.241,14.437,0,6.239-.548,14.4-9.241,14.4s-9.24-8.158-9.24-14.4C834.211,786.043,834.759,777.884,843.451,777.884Zm0,25.835c5.678,0,5.717-7.2,5.717-11.438,0-4.2-.039-11.4-5.717-11.4s-5.716,7.2-5.716,11.4C837.735,796.52,837.774,803.719,843.451,803.719Z" style="fill: #181716"/>
      <path d="M865.223,777.884c8.692,0,9.24,8.159,9.24,14.437,0,6.239-.548,14.4-9.24,14.4s-9.24-8.158-9.24-14.4C855.983,786.043,856.53,777.884,865.223,777.884Zm0,25.835c5.677,0,5.717-7.2,5.717-11.438,0-4.2-.04-11.4-5.717-11.4s-5.717,7.2-5.717,11.4C859.506,796.52,859.546,803.719,865.223,803.719Z" style="fill: #181716"/>
      <path d="M894.512,781.363h-11.2l-1.489,8.159.079.08a6.943,6.943,0,0,1,5.168-2.04c4.933,0,8.966,3.239,8.966,9.718,0,4.8-3.249,9.438-9.71,9.438-4.816,0-8.731-3-8.848-8.118h3.328a5.505,5.505,0,0,0,5.833,5.119c3.172,0,5.874-2.2,5.874-6.718a6.08,6.08,0,0,0-6.265-6.44,6.616,6.616,0,0,0-5.168,2.68l-2.859-.16,2.585-14.717h13.7Z" style="fill: #181716"/>
    </g>
    <g>
      <path d="M1052.279,787.922c-.274-5.759,3.054-10.038,8.928-10.038,4.854,0,8.691,2.879,8.691,8.159,0,5-3.289,7.518-6.734,9.717-3.485,2.161-7.126,3.96-7.791,7.48h14.252v3H1051.5c.549-6.719,3.877-9.118,7.792-11.6,4.7-2.96,7.087-4.719,7.087-8.638a5.1,5.1,0,0,0-5.365-5.119c-3.876,0-5.52,3.638-5.4,7.038Z" style="fill: #181716"/>
      <path d="M1083.213,777.884c8.692,0,9.24,8.159,9.24,14.437,0,6.239-.548,14.4-9.24,14.4s-9.241-8.158-9.241-14.4C1073.972,786.043,1074.52,777.884,1083.213,777.884Zm0,25.835c5.677,0,5.716-7.2,5.716-11.438,0-4.2-.039-11.4-5.716-11.4s-5.717,7.2-5.717,11.4C1077.5,796.52,1077.535,803.719,1083.213,803.719Z" style="fill: #181716"/>
      <path d="M1108.038,806.239h-3.328V785.923h-7.2V783.2c3.8,0,7.244-1.04,7.987-5.319h2.545Z" style="fill: #181716"/>
      <path d="M1126.756,777.884c8.692,0,9.24,8.159,9.24,14.437,0,6.239-.548,14.4-9.24,14.4s-9.241-8.158-9.241-14.4C1117.515,786.043,1118.063,777.884,1126.756,777.884Zm0,25.835c5.677,0,5.716-7.2,5.716-11.438,0-4.2-.039-11.4-5.716-11.4s-5.717,7.2-5.717,11.4C1121.039,796.52,1121.078,803.719,1126.756,803.719Z" style="fill: #181716"/>
    </g>
    <g>
      <path d="M1486.736,788.125c-.274-5.759,3.054-10.038,8.928-10.038,4.854,0,8.691,2.88,8.691,8.159,0,5-3.289,7.518-6.734,9.718-3.485,2.16-7.126,3.96-7.791,7.479h14.252v3h-18.129c.549-6.719,3.877-9.118,7.792-11.6,4.7-2.96,7.087-4.719,7.087-8.638a5.1,5.1,0,0,0-5.365-5.119c-3.876,0-5.52,3.638-5.4,7.038Z" style="fill: #181716"/>
      <path d="M1517.67,778.087c8.692,0,9.24,8.159,9.24,14.437,0,6.239-.548,14.4-9.24,14.4s-9.241-8.159-9.241-14.4C1508.429,786.246,1508.977,778.087,1517.67,778.087Zm0,25.836c5.677,0,5.716-7.2,5.716-11.439,0-4.2-.039-11.4-5.716-11.4s-5.717,7.2-5.717,11.4C1511.953,796.723,1511.992,803.923,1517.67,803.923Z" style="fill: #181716"/>
      <path d="M1542.5,806.442h-3.328V786.126h-7.2v-2.72c3.8,0,7.244-1.04,7.987-5.319h2.545Z" style="fill: #181716"/>
      <path d="M1555.575,799.6c.234,2.76,2.427,4.32,5.09,4.32,4.071,0,6.068-3.64,6.264-10.958l-.078-.081a7.255,7.255,0,0,1-6.422,3.919c-5.637,0-8.77-3.878-8.77-9.478,0-5.479,3.759-9.238,9.123-9.238,5.168,0,9.515,2.839,9.515,13.557,0,9.8-2.9,15.278-9.632,15.278-4.659,0-7.988-2.44-8.418-7.319Zm5.051-18.516c-3.955,0-5.443,3.239-5.443,6.718,0,3.12,2.271,6,5.482,6,3.484,0,5.676-2.879,5.676-6.239C1566.341,784.086,1564.345,781.087,1560.626,781.087Z" style="fill: #181716"/>
    </g>
    <g>
      <path d="M1294.9,785.8c-.274-5.758,3.054-10.038,8.928-10.038,4.854,0,8.691,2.88,8.691,8.16,0,5-3.289,7.518-6.734,9.717-3.485,2.16-7.126,3.96-7.791,7.48h14.252v3h-18.129c.549-6.719,3.877-9.118,7.792-11.6,4.7-2.96,7.087-4.72,7.087-8.639a5.1,5.1,0,0,0-5.365-5.119c-3.875,0-5.52,3.639-5.4,7.038Z" style="fill: #181716"/>
      <path d="M1325.834,775.766c8.692,0,9.24,8.16,9.24,14.438,0,6.239-.548,14.4-9.24,14.4s-9.241-8.158-9.241-14.4C1316.593,783.926,1317.141,775.766,1325.834,775.766Zm0,25.836c5.677,0,5.716-7.2,5.716-11.438,0-4.2-.039-11.4-5.716-11.4s-5.717,7.2-5.717,11.4C1320.117,794.4,1320.156,801.6,1325.834,801.6Z" style="fill: #181716"/>
      <path d="M1350.659,804.122h-3.328V783.805h-7.2v-2.719c3.8,0,7.244-1.04,7.987-5.32h2.545Z" style="fill: #181716"/>
      <path d="M1376.894,779.246h-11.2l-1.487,8.159.078.08a6.943,6.943,0,0,1,5.168-2.04c4.933,0,8.967,3.239,8.967,9.718,0,4.8-3.25,9.438-9.711,9.438-4.816,0-8.731-3-8.849-8.118h3.328a5.506,5.506,0,0,0,5.834,5.119c3.172,0,5.873-2.2,5.873-6.718a6.08,6.08,0,0,0-6.265-6.44,6.614,6.614,0,0,0-5.167,2.68l-2.859-.16,2.584-14.717h13.7Z" style="fill: #181716"/>
    </g>
  </g>
  <line x1="136.61" y1="748.178" x2="136.61" y2="761.786" style="fill: none;stroke: #181716;stroke-miterlimit: 10;stroke-width: 2.4000000953674316px"/>
  <line x1="376.632" y1="748.178" x2="376.632" y2="761.786" style="fill: none;stroke: #181716;stroke-miterlimit: 10;stroke-width: 2.4000000953674316px"/>
  <line x1="616.655" y1="748.178" x2="616.655" y2="761.786" style="fill: none;stroke: #181716;stroke-miterlimit: 10;stroke-width: 2.4000000953674316px"/>
  <line x1="856.676" y1="748.178" x2="856.676" y2="761.786" style="fill: none;stroke: #181716;stroke-miterlimit: 10;stroke-width: 2.4000000953674316px"/>
  <line x1="1096.7" y1="748.178" x2="1096.7" y2="761.786" style="fill: none;stroke: #181716;stroke-miterlimit: 10;stroke-width: 2.4000000953674316px"/>
  <line x1="1336.721" y1="748.178" x2="1336.721" y2="761.786" style="fill: none;stroke: #181716;stroke-miterlimit: 10;stroke-width: 2.4000000953674316px"/>
  <line x1="328.628" y1="748.178" x2="328.628" y2="761.786" style="fill: none;stroke: #181716;stroke-miterlimit: 10;stroke-width: 2.4000000953674316px"/>
  <line x1="280.623" y1="748.178" x2="280.623" y2="761.786" style="fill: none;stroke: #181716;stroke-miterlimit: 10;stroke-width: 2.4000000953674316px"/>
  <line x1="232.619" y1="748.178" x2="232.619" y2="761.786" style="fill: none;stroke: #181716;stroke-miterlimit: 10;stroke-width: 2.4000000953674316px"/>
  <line x1="184.614" y1="748.178" x2="184.614" y2="761.786" style="fill: none;stroke: #181716;stroke-miterlimit: 10;stroke-width: 2.4000000953674316px"/>
  <line x1="568.65" y1="748.178" x2="568.65" y2="761.786" style="fill: none;stroke: #181716;stroke-miterlimit: 10;stroke-width: 2.4000000953674316px"/>
  <line x1="520.646" y1="748.178" x2="520.646" y2="761.786" style="fill: none;stroke: #181716;stroke-miterlimit: 10;stroke-width: 2.4000000953674316px"/>
  <line x1="472.641" y1="748.178" x2="472.641" y2="761.786" style="fill: none;stroke: #181716;stroke-miterlimit: 10;stroke-width: 2.4000000953674316px"/>
  <line x1="424.636" y1="748.178" x2="424.636" y2="761.786" style="fill: none;stroke: #181716;stroke-miterlimit: 10;stroke-width: 2.4000000953674316px"/>
  <line x1="808.672" y1="748.178" x2="808.672" y2="761.786" style="fill: none;stroke: #181716;stroke-miterlimit: 10;stroke-width: 2.4000000953674316px"/>
  <line x1="760.668" y1="748.178" x2="760.668" y2="761.786" style="fill: none;stroke: #181716;stroke-miterlimit: 10;stroke-width: 2.4000000953674316px"/>
  <line x1="712.664" y1="748.178" x2="712.664" y2="761.786" style="fill: none;stroke: #181716;stroke-miterlimit: 10;stroke-width: 2.4000000953674316px"/>
  <line x1="664.659" y1="748.178" x2="664.659" y2="761.786" style="fill: none;stroke: #181716;stroke-miterlimit: 10;stroke-width: 2.4000000953674316px"/>
  <line x1="1048.695" y1="748.178" x2="1048.695" y2="761.786" style="fill: none;stroke: #181716;stroke-miterlimit: 10;stroke-width: 2.4000000953674316px"/>
  <line x1="1000.69" y1="748.178" x2="1000.69" y2="761.786" style="fill: none;stroke: #181716;stroke-miterlimit: 10;stroke-width: 2.4000000953674316px"/>
  <line x1="952.686" y1="748.178" x2="952.686" y2="761.786" style="fill: none;stroke: #181716;stroke-miterlimit: 10;stroke-width: 2.4000000953674316px"/>
  <line x1="904.681" y1="748.178" x2="904.681" y2="761.786" style="fill: none;stroke: #181716;stroke-miterlimit: 10;stroke-width: 2.4000000953674316px"/>
  <line x1="1288.716" y1="748.178" x2="1288.716" y2="761.786" style="fill: none;stroke: #181716;stroke-miterlimit: 10;stroke-width: 2.4000000953674316px"/>
  <line x1="1240.712" y1="748.178" x2="1240.712" y2="761.786" style="fill: none;stroke: #181716;stroke-miterlimit: 10;stroke-width: 2.4000000953674316px"/>
  <line x1="1192.708" y1="748.178" x2="1192.708" y2="761.786" style="fill: none;stroke: #181716;stroke-miterlimit: 10;stroke-width: 2.4000000953674316px"/>
  <line x1="1144.704" y1="748.178" x2="1144.704" y2="761.786" style="fill: none;stroke: #181716;stroke-miterlimit: 10;stroke-width: 2.4000000953674316px"/>
  <line x1="1384.726" y1="748.178" x2="1384.726" y2="761.786" style="fill: none;stroke: #181716;stroke-miterlimit: 10;stroke-width: 2.4000000953674316px"/>
  <line x1="1432.731" y1="748.178" x2="1432.731" y2="761.786" style="fill: none;stroke: #181716;stroke-miterlimit: 10;stroke-width: 2.4000000953674316px"/>
  <line x1="1528.739" y1="748.178" x2="1528.739" y2="761.786" style="fill: none;stroke: #181716;stroke-miterlimit: 10;stroke-width: 2.4000000953674316px"/>
  <line x1="1480.735" y1="748.178" x2="1480.735" y2="761.786" style="fill: none;stroke: #181716;stroke-miterlimit: 10;stroke-width: 2.4000000953674316px"/>
  <polygon points="137.631 729.184 185.647 727.872 233.655 728.264 281.671 727.232 329.687 726.704 377.695 725.208 425.711 724.704 473.719 725.648 521.735 726.624 569.751 726.776 617.759 727.392 665.775 727.048 713.791 726.784 761.799 727.328 809.815 728.48 857.823 728.92 905.839 730.752 953.855 731.168 1001.863 731.848 1049.879 733.344 1097.895 732.76 1145.903 733.376 1193.919 733.448 1241.927 733.352 1289.943 733.52 1337.959 733.584 1385.967 733.08 1433.983 732.448 1481.999 732.568 1530.007 732.792 1530.007 748.96 1481.999 748.96 1433.983 748.96 1385.967 748.96 1337.959 748.96 1289.943 748.96 1241.927 748.96 1193.919 748.96 1145.903 748.96 1097.895 748.96 1049.879 748.96 1001.863 748.96 953.855 748.96 905.839 748.96 857.823 748.96 809.815 748.96 761.799 748.96 713.791 748.96 665.775 748.96 617.759 748.96 569.751 748.96 521.735 748.96 473.719 748.96 425.711 748.96 377.695 748.96 329.687 748.96 281.671 748.96 233.655 748.96 185.647 748.96 137.631 748.96 137.631 729.184" style="fill: #5d99d3"/>
  <polygon points="137.631 587.484 185.647 601.636 233.655 602.46 281.671 604.428 329.687 615.004 377.695 614.732 425.711 613.58 473.719 617.94 521.735 620.908 569.751 625.092 617.759 629.356 665.775 630.884 713.791 631.036 761.799 630.716 809.815 634.716 857.823 639.228 905.839 642.9 953.855 642.204 1001.863 644.74 1049.879 657.308 1097.895 653.676 1145.903 656.548 1193.919 658.596 1241.927 658.388 1289.943 662.22 1337.959 660.332 1385.967 657.572 1433.983 655.068 1481.999 656.316 1530.007 656.98 1530.007 732.796 1481.999 732.572 1433.983 732.452 1385.967 733.076 1337.959 733.58 1289.943 733.524 1241.927 733.356 1193.919 733.452 1145.903 733.372 1097.895 732.764 1049.879 733.348 1001.863 731.852 953.855 731.172 905.839 730.756 857.823 728.916 809.815 728.476 761.799 727.324 713.791 726.788 665.775 727.044 617.759 727.396 569.751 726.772 521.735 726.628 473.719 725.652 425.711 724.708 377.695 725.204 329.687 726.7 281.671 727.228 233.655 728.268 185.647 727.868 137.631 729.188 137.631 587.484" style="fill: #f07d2f"/>
  <polygon points="137.631 454.422 185.647 476.326 233.655 490.206 281.671 496.99 329.687 501.838 377.695 499.998 425.711 505.646 473.719 505.822 521.735 513.094 569.751 525.198 617.759 524.254 665.775 531.886 713.791 532.102 761.799 532.086 809.815 534.358 857.823 542.222 905.839 544.054 953.855 542.246 1001.863 552.446 1049.879 592.334 1097.895 573.19 1145.903 577.182 1193.919 583.83 1241.927 585.502 1289.943 589.518 1337.959 585.102 1385.967 582.414 1433.983 578.174 1481.999 580.55 1530.007 584.686 1530.007 656.982 1481.999 656.318 1433.983 655.07 1385.967 657.574 1337.959 660.334 1289.943 662.214 1241.927 658.382 1193.919 658.598 1145.903 656.542 1097.895 653.678 1049.879 657.31 1001.863 644.742 953.855 642.198 905.839 642.902 857.823 639.23 809.815 634.718 761.799 630.718 713.791 631.03 665.775 630.878 617.759 629.358 569.751 625.094 521.735 620.902 473.719 617.942 425.711 613.582 377.695 614.726 329.687 615.006 281.671 604.43 233.655 602.462 185.647 601.63 137.631 587.486 137.631 454.422" style="fill: #a6a6a7"/>
  <polygon points="137.631 335.084 185.647 363.78 233.655 381.9 281.671 392.212 329.687 389.38 377.695 380.42 425.711 384.732 473.719 389.164 521.735 410.02 569.751 428.26 617.759 426.916 665.775 439.428 713.791 445.628 761.799 443.516 809.815 444.428 857.823 453.044 905.839 461.284 953.855 459.508 1001.863 475.404 1049.879 526.804 1097.895 508.532 1145.903 514.444 1193.919 524.388 1241.927 527.652 1289.943 534.292 1337.959 530.572 1385.967 528.3 1433.983 521.012 1481.999 523.204 1530.007 529.596 1530.007 584.684 1481.999 580.548 1433.983 578.18 1385.967 582.412 1337.959 585.1 1289.943 589.516 1241.927 585.5 1193.919 583.828 1145.903 577.188 1097.895 573.188 1049.879 592.332 1001.863 552.444 953.855 542.252 905.839 544.052 857.823 542.22 809.815 534.356 761.799 532.084 713.791 532.1 665.775 531.892 617.759 524.26 569.751 525.196 521.735 513.092 473.719 505.82 425.711 505.652 377.695 499.996 329.687 501.844 281.671 496.988 233.655 490.212 185.647 476.332 137.631 454.42 137.631 335.084" style="fill: #fcbe00"/>
  <polygon points="137.631 219.406 185.647 255.166 233.655 275.702 281.671 290.654 329.687 283.79 377.695 271.366 425.711 276.99 473.719 280.934 521.735 301.614 569.751 319.678 617.759 316.382 665.775 330.454 713.791 337.47 761.799 332.846 809.815 331.654 857.823 338.79 905.839 345.758 953.855 340.678 1001.863 363.31 1049.879 435.766 1097.895 416.678 1145.903 422.886 1193.919 438.062 1241.927 447.622 1289.943 452.022 1337.959 448.494 1385.967 445.654 1433.983 436.934 1481.999 437.43 1530.007 445.342 1530.007 529.598 1481.999 523.198 1433.983 521.014 1385.967 528.302 1337.959 530.574 1289.943 534.286 1241.927 527.654 1193.919 524.382 1145.903 514.446 1097.895 508.534 1049.879 526.806 1001.863 475.406 953.855 459.502 905.839 461.278 857.823 453.046 809.815 444.422 761.799 443.518 713.791 445.622 665.775 439.43 617.759 426.91 569.751 428.262 521.735 410.022 473.719 389.166 425.711 384.726 377.695 380.414 329.687 389.382 281.671 392.214 233.655 381.902 185.647 363.782 137.631 335.086 137.631 219.406" style="fill: #4970b6"/>
  <line x1="136.912" y1="124.562" x2="136.912" y2="749.826" style="fill: none;stroke: #181716;stroke-linejoin: round;stroke-width: 2.4000000953674316px"/>
  <line x1="136.426" y1="749.251" x2="1528.426" y2="749.251" style="fill: none;stroke: #181716;stroke-linejoin: round;stroke-width: 2.4000000953674316px"/>
</svg>
